<?xml version="1.0" standalone="no"?>
<!DOCTYPE svg PUBLIC "-//W3C//DTD SVG 1.1//EN" "http://www.w3.org/Graphics/SVG/1.1/DTD/svg11.dtd" >
<svg>
<metadata>
Created by FontForge 20090914 at Wed Nov  9 15:09:12 2016
 By www-data
Copyright (c) 2010 by Typemade. All rights reserved.
</metadata>
<defs>
<font id="JosefinSlab-Bold" horiz-adv-x="547" >
  <font-face 
    font-family="Josefin Slab"
    font-weight="700"
    font-stretch="normal"
    units-per-em="1000"
    panose-1="2 0 0 0 0 0 0 0 0 0"
    ascent="750"
    descent="-250"
    x-height="375"
    cap-height="700"
    bbox="-51 -250.002 1143 932"
    underline-thickness="50"
    underline-position="-50"
    unicode-range="U+0020-U+203A"
  />
<missing-glyph horiz-adv-x="300" 
 />
    <glyph glyph-name=".notdef" horiz-adv-x="300" 
 />
    <glyph glyph-name="space" unicode=" " horiz-adv-x="300" 
 />
    <glyph glyph-name="space" unicode="&#xa0;" horiz-adv-x="300" 
 />
    <glyph glyph-name="exclam" unicode="!" horiz-adv-x="201" 
d="M100 0c-13.333 0 -25.333 5 -36 15s-16 22.667 -16 38s5.33301 27.833 16 37.5s22.667 14.5 36 14.5c12.667 0 24.334 -4.83301 35.001 -14.5s16 -22.167 16 -37.5s-5.33301 -28 -16 -38s-22.334 -15 -35.001 -15zM58 750h83v-584h-83v584z" />
    <glyph glyph-name="quotedbl" unicode="&#x22;" horiz-adv-x="335" 
d="M196 472v248h83l-2 -124l-2 -124h-79zM63 472v248h83l-2 -124l-2 -124h-79z" />
    <glyph glyph-name="numbersign" unicode="#" horiz-adv-x="571" 
d="M223 371l-12 -102h100l12 102h-100zM279 0c3.33301 32 7 63.333 11 94s7.66699 62 11 94h-100c-3.33301 -32 -7 -63.333 -11 -94s-7.66699 -62 -11 -94h-84c3.33301 32 7 63.333 11 94s7.66699 62 11 94h-92c1.33301 13.333 3 26.833 5 40.5s3.66699 27.167 5 40.5h92
l12 102h-91l4 40.5l4 40.5h92l12 95.5l12 95.5h84l-12 -95.5l-12 -95.5h100l12 95.5l12 95.5h84l-12 -95.5l-12 -95.5h102l-4 -40.5l-4 -40.5h-103l-12 -102h102c-1.33301 -13.333 -3 -26.833 -5 -40.5s-3.66699 -27.167 -5 -40.5h-102c-3.33301 -32 -7 -63.333 -11 -94
s-7.66699 -62 -11 -94h-84z" />
    <glyph glyph-name="dollar" unicode="$" horiz-adv-x="567" 
d="M345 546l0.00195312 58.999c-9.33301 4 -19.166 7.66699 -29.499 11s-21.833 5.66602 -34.5 6.99902v-225c21.333 -7.33301 42.666 -15.666 63.999 -24.999s40.5 -21.666 57.5 -36.999s30.667 -35 41 -59s15.5 -54 15.5 -90c0 -27.333 -4.66699 -52.166 -14 -74.499
s-22 -41.833 -38 -58.5s-34.833 -30.167 -56.5 -40.5s-44.834 -16.833 -69.501 -19.5v-62h-84v65c-40 6 -75.667 18 -107 36s-54.333 38 -69 60v116h79v-89c13.333 -10 28 -19 44 -27s33.667 -14 53 -18v268c-19.333 6 -37.666 13 -54.999 21s-32.833 18.5 -46.5 31.5
s-24.667 29.167 -33 48.5s-12.833 43.666 -13.5 72.999c-0.666992 18.667 1.5 37.834 6.5 57.501s13.5 38 25.5 55s27.5 31.667 46.5 44s42.167 21.166 69.5 26.499v64h84v-62c21.333 -2 44.166 -7 68.499 -15s49.166 -22.333 74.499 -43v-98h-79zM376.002 187.999
c0 18.667 -2.5 34.833 -7.5 48.5s-11.667 25.5 -20 35.5s-18.333 18.5 -30 25.5s-24.167 13.167 -37.5 18.5v-241c26.667 6 49.167 18.333 67.5 37s27.5 44 27.5 76zM132.002 513.998c0 -22.667 6 -40.5 18 -53.5s27.667 -24.167 47 -33.5v189
c-22 -8.66699 -38.333 -22.167 -49 -40.5s-16 -38.833 -16 -61.5z" />
    <glyph glyph-name="percent" unicode="%" horiz-adv-x="726" 
d="M478 111c0 -13.333 4 -24.333 12 -33s18.667 -13 32 -13s24 4.33301 32 13s12 19.667 12 33s-4 24.166 -12 32.499s-18.667 12.5 -32 12.5s-24 -4.16699 -32 -12.5s-12 -19.166 -12 -32.499zM522 -16c-17.333 0 -33.833 3.33301 -49.5 10s-29.334 15.667 -41.001 27
s-20.834 24.666 -27.501 39.999s-10 32 -10 50c0 17.333 3.33301 33.666 10 48.999s15.834 28.666 27.501 39.999s25.334 20.333 41.001 27s32.167 10 49.5 10s33.666 -3.33301 48.999 -10s28.833 -15.667 40.5 -27s21 -24.666 28 -39.999s10.5 -31.666 10.5 -48.999
c0 -18 -3.5 -34.667 -10.5 -50s-16.333 -28.666 -28 -39.999s-25.167 -20.333 -40.5 -27s-31.666 -10 -48.999 -10zM174 389c0 -13.333 4 -24.333 12 -33s18.667 -13 32 -13s24 4.33301 32 13s12 19.667 12 33s-4 24.166 -12 32.499s-18.667 12.5 -32 12.5
s-24 -4.16699 -32 -12.5s-12 -19.166 -12 -32.499zM218 262c-17.333 0 -33.833 3.33301 -49.5 10s-29.334 15.667 -41.001 27s-20.834 24.666 -27.501 39.999s-10 32 -10 50c0 17.333 3.33301 33.666 10 48.999s15.834 28.666 27.501 39.999s25.334 20.333 41.001 27
s32.167 10 49.5 10s33.666 -3.33301 48.999 -10s28.833 -15.667 40.5 -27s21 -24.666 28 -39.999s10.5 -31.666 10.5 -48.999c0 -18 -3.5 -34.667 -10.5 -50s-16.333 -28.666 -28 -39.999s-25.167 -20.333 -40.5 -27s-31.666 -10 -48.999 -10zM174 0l149 250l149 250h91
l-149 -250l-149 -250h-91z" />
    <glyph glyph-name="ampersand" unicode="&#x26;" horiz-adv-x="700" 
d="M422 375l179.001 -0.00195312v-81h-95v-40v-40c0 -11.333 -0.333008 -23.166 -1 -35.499s-2 -23.5 -4 -33.5l75 -121l-65 -43l-50 82c-18.667 -22 -41.334 -39.5 -68.001 -52.5s-56 -19.5 -88 -19.5c-28 0 -54.167 5.16699 -78.5 15.5s-45.5 24.5 -63.5 42.5
s-32.167 38.833 -42.5 62.5s-15.5 49.167 -15.5 76.5c0 24 4 46.667 12 68s19.333 40.5 34 57.5s31.667 31.333 51 43s40.666 19.5 63.999 23.5l-70 116c-9.33301 16 -16.666 32.5 -21.999 49.5s-8 33.833 -8 50.5s3.5 33.834 10.5 51.501s17.167 34 30.5 49
s29.666 27.333 48.999 37s41.666 14.5 66.999 14.5s49.333 -4.5 72 -13.5s42.334 -18.833 59.001 -29.5l-33 -65c-10 5.33301 -23.167 11.5 -39.5 18.5s-32.5 10.5 -48.5 10.5c-14 0 -26 -3 -36 -9s-18.333 -13.5 -25 -22.5s-11.667 -18.667 -15 -29s-5 -19.5 -5 -27.5
c0 -11.333 1.83301 -22.5 5.5 -33.5s8.83398 -21.833 15.501 -32.5l149 -242v3v99zM188.001 187.998c0 -32.667 10.832 -60.168 32.499 -82.501s49.834 -33.5 84.501 -33.5c25.333 0 47.5 6.33301 66.5 19s32.833 29.334 41.5 50.001l-99 162
c-38 0 -68.5 -10.167 -91.5 -30.5s-34.5 -48.5 -34.5 -84.5z" />
    <glyph glyph-name="quotesingle" unicode="'" horiz-adv-x="163" 
d="M42 472v248h84l-2 -124l-2 -124h-80z" />
    <glyph glyph-name="parenleft" unicode="(" horiz-adv-x="424" 
d="M115 291c0 50 4.66699 97.667 14 143s21.666 87.333 36.999 126s32.833 73.834 52.5 105.501s40.167 58.5 61.5 80.5c12 -4 24.167 -7.83301 36.5 -11.5s24.5 -7.5 36.5 -11.5c-19.333 -22 -38.166 -48 -56.499 -78s-34.833 -63.333 -49.5 -100
s-26.334 -76.334 -35.001 -119.001s-13 -87.667 -13 -135s4.33301 -92.333 13 -135s20.334 -82.334 35.001 -119.001s31.167 -70 49.5 -100s37.166 -56 56.499 -78c-12 -4 -24.167 -7.83301 -36.5 -11.5s-24.5 -7.5 -36.5 -11.5c-21.333 22 -41.833 48.833 -61.5 80.5
s-37.167 66.834 -52.5 105.501s-27.666 80.667 -36.999 126s-14 93 -14 143z" />
    <glyph glyph-name="parenright" unicode=")" horiz-adv-x="400" 
d="M312 288c0 -50 -4.66699 -97.667 -14 -143s-21.666 -87.333 -36.999 -126s-33 -73.834 -53 -105.501s-40.333 -58.5 -61 -80.5l-36.5 10.5l-36.5 10.5c19.333 22 38.166 48 56.499 78s34.833 63.333 49.5 100s26.334 76.334 35.001 119.001s13 87.667 13 135
s-4.33301 92.333 -13 135s-20.334 82.334 -35.001 119.001s-31.167 70 -49.5 100s-37.166 56 -56.499 78l36.5 12.5l36.5 12.5c20.667 -22 41 -48.833 61 -80.5s37.667 -66.834 53 -105.501s27.666 -80.667 36.999 -126s14 -93 14 -143z" />
    <glyph glyph-name="asterisk" unicode="*" horiz-adv-x="335" 
d="M250 575l62.998 -36c-7.33301 -12 -14.333 -24.167 -21 -36.5s-13.667 -24.5 -21 -36.5c-10.667 6 -21 12.167 -31 18.5s-20.333 12.5 -31 18.5c0 -11.333 -0.166992 -22.833 -0.5 -34.5s-0.5 -23.167 -0.5 -34.5h-80v70l-30.5 -17.5l-30.5 -17.5
c-7.33301 12 -14.333 24.167 -21 36.5s-13.667 24.5 -21 36.5c10.667 5.33301 21 11 31 17s20.333 11.667 31 17l-30.5 18.5l-30.5 18.5l39 69l31.5 -18.5l31.5 -18.5v75h84c0 -12.667 -0.166992 -25.167 -0.5 -37.5s-0.5 -24.833 -0.5 -37.5l32 18l32 18l20 -34.5l20 -34.5
c-11.333 -6 -22.166 -12.167 -32.499 -18.5s-21.166 -12.5 -32.499 -18.5z" />
    <glyph glyph-name="plus" unicode="+" horiz-adv-x="543" 
d="M224 51v139h-138v81h138v140h84v-140h138v-81h-138v-139h-84z" />
    <glyph glyph-name="comma" unicode="," horiz-adv-x="200" 
d="M163 86l-43 -103l-43 -103h-75l38.5 103l38.5 103h84z" />
    <glyph glyph-name="hyphen" unicode="-" horiz-adv-x="300" 
d="M53 147v81h184v-81h-184z" />
    <glyph glyph-name="hyphen" unicode="&#xad;" horiz-adv-x="300" 
d="M53 147v81h184v-81h-184z" />
    <glyph glyph-name="period" unicode="." horiz-adv-x="163" 
d="M33 52c0 15.333 5.33301 28 16 38s22.667 15 36 15c12.667 0 24.334 -5 35.001 -15s16 -22.667 16 -38s-5.33301 -27.833 -16 -37.5s-22.334 -14.5 -35.001 -14.5c-13.333 -0 -25.333 4.83301 -36 14.5s-16 22.167 -16 37.5z" />
    <glyph glyph-name="slash" unicode="/" horiz-adv-x="380" 
d="M17 -19l139 377.5l139 377.5h84l-139 -377.5l-139 -377.5h-84z" />
    <glyph glyph-name="zero" unicode="0" horiz-adv-x="616" 
d="M37 327c0 50.667 7.16797 96.501 21.501 137.501s33.666 75.833 57.999 104.5s52.833 50.667 85.5 66s67.667 23 105 23s72.333 -8 105 -24s61 -38.5 85 -67.5s42.667 -64.167 56 -105.5s20 -87.333 20 -138s-7.83301 -96.334 -23.5 -137.001s-36.167 -75.5 -61.5 -104.5
s-54 -51.167 -86 -66.5s-65 -23 -99 -23s-67 8 -99 24s-60.5 38.667 -85.5 68s-44.833 64.5 -59.5 105.5s-22 86.833 -22 137.5zM121.001 326.001c0 -35.333 4.66699 -68.335 14 -99.002s22.333 -57.334 39 -80.001s36 -40.667 58 -54s45.667 -20 71 -20
c24.667 0 48.334 6.33301 71.001 19s42.5 30.334 59.5 53.001s30.5 49.334 40.5 80.001s15 63.667 15 99c0 24 -3 50.667 -9 80s-16.167 56.833 -30.5 82.5s-33.166 47.167 -56.499 64.5s-52 26 -86 26s-62.833 -8.5 -86.5 -25.5s-42.834 -38.167 -57.501 -63.5
s-25.334 -52.666 -32.001 -81.999s-10 -56 -10 -80z" />
    <glyph glyph-name="one" unicode="1" horiz-adv-x="290" 
d="M23 79h79v490h-68v81h152v-571h79v-79h-242v79z" />
    <glyph glyph-name="two" unicode="2" horiz-adv-x="519" 
d="M253 81l163.997 0.00585938v93h79v-174h-443l120 120.5c38.667 39 73 76.667 103 113s54 71.666 72 105.999s27 67.166 27 98.499c0 24.667 -4 45.667 -12 63s-18.167 31.666 -30.5 42.999s-25.666 19.666 -39.999 24.999s-27.5 8 -39.5 8
c-25.333 0 -46 -4.33301 -62 -13s-28.667 -19.334 -38 -32.001s-15.833 -26 -19.5 -40s-5.5 -26.333 -5.5 -37c0 -22 3.33301 -41.5 10 -58.5s16.334 -32.167 29.001 -45.5l-50 -51c-11.333 7.33301 -21.5 17.166 -30.5 29.499s-16.667 25.666 -23 39.999
s-11.166 29 -14.499 44s-5 28.833 -5 41.5c0 26.667 4.5 52.334 13.5 77.001s22.333 46.334 40 65.001s39.5 33.5 65.5 44.5s56 16.5 90 16.5c30.667 0 58.667 -5.66699 84 -17s47 -26.5 65 -45.5s32 -41 42 -66s15 -51.5 15 -79.5c0 -33.333 -5.83301 -65.5 -17.5 -96.5
s-27 -61.833 -46 -92.5s-40.833 -60.834 -65.5 -90.501z" />
    <glyph glyph-name="three" unicode="3" horiz-adv-x="515" 
d="M154 326l139.001 242.001h-111v-47h-79v129h329l-143 -238c22 -8 42 -18.5 60 -31.5s33.667 -28.167 47 -45.5s23.666 -36.666 30.999 -57.999s11 -44 11 -68c0 -30 -5.83301 -58.167 -17.5 -84.5s-27.5 -49.333 -47.5 -69s-43.167 -35.167 -69.5 -46.5
s-54.5 -17 -84.5 -17c-32 0 -61.667 6.5 -89 19.5s-51 30.167 -71 51.5l61 57c12 -14.667 26.5 -26.167 43.5 -34.5s35.5 -12.5 55.5 -12.5c18.667 0 36.167 3.66699 52.5 11s30.666 17.166 42.999 29.499s22.166 26.666 29.499 42.999s11 33.833 11 52.5
s-3.66699 36.167 -11 52.5s-17.166 30.5 -29.499 42.5s-26.666 21.5 -42.999 28.5s-33.833 10.5 -52.5 10.5c-24 0 -45.667 -5.66699 -65 -17z" />
    <glyph glyph-name="four" unicode="4" horiz-adv-x="529" 
d="M244 79h75v104h-282l366 475v-394h97v-81h-97v-104h83v-79h-242v79zM319 413l-114 -149h114v149z" />
    <glyph glyph-name="five" unicode="5" horiz-adv-x="543" 
d="M430 650v-128.998h-79v48h-124v-147c4 0.666992 8.16699 1.16699 12.5 1.5s8.83301 0.5 13.5 0.5c30 0 58.167 -5.5 84.5 -16.5s49.5 -26.333 69.5 -46s35.833 -42.5 47.5 -68.5s17.5 -54 17.5 -84s-5.83301 -58.167 -17.5 -84.5s-27.5 -49.333 -47.5 -69
s-43.167 -35.167 -69.5 -46.5s-54.5 -17 -84.5 -17c-29.333 0 -56.833 5.33301 -82.5 16s-48.167 25.667 -67.5 45l61 56c11.333 -11.333 24.666 -20.166 39.999 -26.499s31.666 -9.5 48.999 -9.5c18.667 0 36.167 3.66699 52.5 11s30.666 17.166 42.999 29.499
s22.166 26.666 29.499 42.999s11 33.833 11 52.5s-3.66699 36.167 -11 52.5s-17.166 30.5 -29.499 42.5s-26.666 21.5 -42.999 28.5s-33.833 10.5 -52.5 10.5c-23.333 0 -44.666 -3.83301 -63.999 -11.5s-34.666 -20.834 -45.999 -39.501v358h287z" />
    <glyph glyph-name="six" unicode="6" horiz-adv-x="520" 
d="M134 209c0 -18.667 3.33301 -36.167 10 -52.5s16 -30.666 28 -42.999s26 -22.166 42 -29.499s33 -11 51 -11c18.667 0 36.167 3.66699 52.5 11s30.666 17.166 42.999 29.499s22.166 26.666 29.499 42.999s11 33.833 11 52.5s-3.66699 36.167 -11 52.5
s-17.166 30.5 -29.499 42.5s-26.666 21.5 -42.999 28.5s-33.833 10.5 -52.5 10.5c-18 0 -35 -3.5 -51 -10.5s-30 -16.5 -42 -28.5s-21.333 -26.167 -28 -42.5s-10 -33.833 -10 -52.5zM48 197c0 48 10.1689 92.833 30.502 134.5s46.5 80.5 78.5 116.5s67.667 69.667 107 101
l115 88l26 -32l26 -32c-43.333 -28.667 -80 -55.5 -110 -80.5s-55.667 -48.167 -77 -69.5c3.33301 0 6.83301 0.166992 10.5 0.5s7.16699 0.5 10.5 0.5c30 0 58.167 -5.5 84.5 -16.5s49.5 -26.333 69.5 -46s35.833 -42.5 47.5 -68.5s17.5 -54 17.5 -84
s-5.83301 -58.167 -17.5 -84.5s-27.5 -49.333 -47.5 -69s-43.167 -35.167 -69.5 -46.5s-54.5 -17 -84.5 -17c-28.667 0 -55.834 5.33301 -81.501 16s-48.334 25.167 -68.001 43.5s-35.5 40 -47.5 65s-18.667 51.833 -20 80.5z" />
    <glyph glyph-name="seven" unicode="7" horiz-adv-x="469" 
d="M427 650l-292 -650h-95l257 568h-204v-47h-79v129h413z" />
    <glyph glyph-name="eight" unicode="8" horiz-adv-x="510" 
d="M180 498c0 -21.333 7.33301 -39 22 -53s32.334 -21 53.001 -21c21.333 0 39.166 7 53.499 21s21.5 31.667 21.5 53s-7.16699 39.833 -21.5 55.5s-32.166 23.5 -53.499 23.5c-20.667 0 -38.334 -7.83301 -53.001 -23.5s-22 -34.167 -22 -55.5zM122 209
c0 -18.667 3.33496 -36.167 10.002 -52.5s16 -30.666 28 -42.999s26 -22.166 42 -29.499s33 -11 51 -11c18.667 0 36.167 3.66699 52.5 11s30.666 17.166 42.999 29.499s22.166 26.666 29.499 42.999s11 33.833 11 52.5c0 18 -3.5 35 -10.5 51s-16.333 30 -28 42
s-25.5 21.667 -41.5 29s-33 11.333 -51 12c-19.333 0 -37.333 -3.5 -54 -10.5s-31 -16.5 -43 -28.5s-21.5 -26.167 -28.5 -42.5s-10.5 -33.833 -10.5 -52.5zM36.002 209c0 38.667 9.33301 73.834 28 105.501s43.334 57.167 74.001 76.5
c-13.333 13.333 -23.833 29.166 -31.5 47.499s-11.5 38.166 -11.5 59.499c0 22 4.16699 42.667 12.5 62s19.666 36.333 33.999 51s31 26.167 50 34.5s39.5 12.5 61.5 12.5s42.667 -4.16699 62 -12.5s36.333 -19.833 51 -34.5s26.167 -31.667 34.5 -51s12.5 -40 12.5 -62
c0 -21.333 -4 -41.166 -12 -59.499s-18.667 -34.166 -32 -47.499c30.667 -19.333 55.5 -44.833 74.5 -76.5s28.5 -66.834 28.5 -105.501c0 -30 -5.83301 -58.167 -17.5 -84.5s-27.5 -49.333 -47.5 -69s-43.167 -35.167 -69.5 -46.5s-54.5 -17 -84.5 -17
s-58.167 5.66699 -84.5 17s-49.333 26.833 -69 46.5s-35.167 42.667 -46.5 69s-17 54.5 -17 84.5z" />
    <glyph glyph-name="nine" unicode="9" horiz-adv-x="525" 
d="M376 419c0 18.667 -3.33301 36.167 -10 52.5s-16 30.666 -28 42.999s-26 22.166 -42 29.499s-33 11 -51 11c-18.667 0 -36.167 -3.66699 -52.5 -11s-30.666 -17.166 -42.999 -29.499s-22.166 -26.666 -29.499 -42.999s-11 -33.833 -11 -52.5s3.66699 -36.167 11 -52.5
s17.166 -30.5 29.499 -42.5s26.666 -21.5 42.999 -28.5s33.833 -10.5 52.5 -10.5c18 0 35 3.5 51 10.5s30 16.5 42 28.5s21.333 26.167 28 42.5s10 33.833 10 52.5zM462 419c0 -45.333 -10.499 -88.3311 -31.499 -128.998s-47.833 -78.834 -80.5 -114.501
s-68.334 -68.834 -107.001 -99.501l-112 -85l-26 32l-26 32c43.333 28.667 80 55.5 110 80.5s55.667 48.167 77 69.5c-3.33301 -0.666992 -6.83301 -1 -10.5 -1h-10.5c-30 0 -58.167 5.5 -84.5 16.5s-49.5 26.333 -69.5 46s-35.833 42.5 -47.5 68.5s-17.5 54 -17.5 84
s5.83301 58.167 17.5 84.5s27.5 49.333 47.5 69s43.167 35.167 69.5 46.5s54.5 17 84.5 17s58.167 -5.83301 84.5 -17.5s49.333 -27.334 69 -47.001s35.167 -42.667 46.5 -69s17 -54.166 17 -83.499z" />
    <glyph glyph-name="colon" unicode=":" horiz-adv-x="175" 
d="M33 302c0 15.333 5.33301 28 16 38s22.667 15 36 15c12.667 0 24.334 -5 35.001 -15s16 -22.667 16 -38s-5.33301 -27.833 -16 -37.5s-22.334 -14.5 -35.001 -14.5c-13.333 0 -25.333 4.83301 -36 14.5s-16 22.167 -16 37.5zM33 52c0 15.333 5.33301 28 16 38
s22.667 15 36 15c12.667 0 24.334 -5 35.001 -15s16 -22.667 16 -38s-5.33301 -27.833 -16 -37.5s-22.334 -14.5 -35.001 -14.5c-13.333 -0 -25.333 4.83301 -36 14.5s-16 22.167 -16 37.5z" />
    <glyph glyph-name="semicolon" unicode=";" horiz-adv-x="201" 
d="M64 302c0 15.333 5.33301 28 16 38s22.667 15 36 15c12.667 0 24.334 -5 35.001 -15s16 -22.667 16 -38s-5.33301 -27.833 -16 -37.5s-22.334 -14.5 -35.001 -14.5c-13.333 0 -25.333 4.83301 -36 14.5s-16 22.167 -16 37.5zM149 86l-43 -103l-43 -103h-75l38.5 103
l38.5 103h84z" />
    <glyph glyph-name="less" unicode="&#x3c;" horiz-adv-x="680" 
d="M553 99v-113l-218.5 126l-218.5 126l218.5 126l218.5 126v-113l-120.5 -69.5l-120.5 -69.5l120.5 -69.5z" />
    <glyph glyph-name="equal" unicode="=" horiz-adv-x="708" 
d="M606 193v-81h-506v81h506zM606 387v-81h-506v81h506z" />
    <glyph glyph-name="greater" unicode="&#x3e;" horiz-adv-x="650" 
d="M116 -14v113l120.5 69.5l120.5 69.5l-120.5 69.5l-120.5 69.5v113l218.5 -126l218.5 -126l-218.5 -126z" />
    <glyph glyph-name="question" unicode="?" horiz-adv-x="452" 
d="M114 552c-12 4.66699 -24.168 9.1709 -36.501 13.5039s-24.5 8.83301 -36.5 13.5c4.66699 14.667 11.334 30.834 20.001 48.501s20.667 34.167 36 49.5s34.666 28.333 57.999 39s52 16 86 16c27.333 0 53 -5.16699 77 -15.5s44.833 -24.333 62.5 -42
s31.5 -38.334 41.5 -62.001s15 -48.834 15 -75.501c0 -37.333 -8.83301 -69.833 -26.5 -97.5s-41.5 -52.834 -71.5 -75.501l-30 -20.5c-10.667 -7 -20.667 -15 -30 -24s-17 -19.667 -23 -32s-9 -27.5 -9 -45.5v-78h-84v97c0 21.333 3.33301 38.666 10 51.999
s15.667 25.166 27 35.499s24 20 38 29s28.667 19.5 44 31.5c24 18 41.667 37.667 53 59s17 44.333 17 69c0 32.667 -10.167 59.834 -30.5 81.501s-47.166 32.5 -80.499 32.5c-37.333 0 -65.333 -8.33301 -84 -25s-33 -41.334 -43 -74.001zM203.999 0.00390625
c-13.333 0 -25.333 4.83301 -36 14.5s-16 22.167 -16 37.5s5.33301 28 16 38s22.667 15 36 15c12.667 0 24.334 -5 35.001 -15s16 -22.667 16 -38s-5.33301 -27.833 -16 -37.5s-22.334 -14.5 -35.001 -14.5z" />
    <glyph glyph-name="at" unicode="@" horiz-adv-x="990" 
d="M368 188c0 -32.667 10.833 -60.167 32.5 -82.5s49.834 -33.5 84.501 -33.5s62.834 11.167 84.501 33.5s32.5 49.833 32.5 82.5c0 33.333 -10.833 60.833 -32.5 82.5s-49.834 32.5 -84.501 32.5s-62.834 -10.833 -84.501 -32.5s-32.5 -49.167 -32.5 -82.5zM910 188
c-2.66699 -35.333 -10.8291 -64.835 -24.4961 -88.502s-29.834 -43 -48.501 -58s-38.667 -25.667 -60 -32s-41 -9.5 -59 -9.5h-106v20v20c-0.666992 -2 -4 -5.66699 -10 -11s-14.5 -10.666 -25.5 -15.999s-24.167 -10.333 -39.5 -15s-32.666 -7 -51.999 -7
c-28 0 -54.333 5.16699 -79 15.5s-46 24.5 -64 42.5s-32.167 38.833 -42.5 62.5s-15.5 48.834 -15.5 75.501c0 26 5.16699 50.833 15.5 74.5s24.5 44.5 42.5 62.5s39.333 32.167 64 42.5s51 15.5 79 15.5c17.333 0 33.5 -2.33301 48.5 -7s28.167 -10.167 39.5 -16.5
s20.333 -12.5 27 -18.5s10.667 -10 12 -12c0 7.33301 0.666992 15 2 23s2 16 2 24h69v-294h33c13.333 0 26.333 1.83301 39 5.5s24 9.66699 34 18s18 19.333 24 33s9.66699 30.5 11 50.5c0 47.333 -8.83301 91.666 -26.5 132.999s-41.834 77.5 -72.501 108.5
s-66.334 55.333 -107.001 73s-84.334 26.5 -131.001 26.5c-47.333 0 -91.5 -8.83301 -132.5 -26.5s-77 -42 -108 -73s-55.333 -67.167 -73 -108.5s-26.5 -85.666 -26.5 -132.999s8.83301 -91.5 26.5 -132.5s42 -76.833 73 -107.5s67 -54.834 108 -72.501
s85.167 -26.5 132.5 -26.5c39.333 0 76.5 5.83301 111.5 17.5s67.5 27.834 97.5 48.501l25 -29.5l25 -29.5c-16.667 -14.667 -35.334 -27.5 -56.001 -38.5s-42.5 -20.167 -65.5 -27.5s-46.167 -12.833 -69.5 -16.5s-46 -5.5 -68 -5.5c-58.667 0 -113.667 11 -165 33
s-96.166 52 -134.499 90s-68.666 82.667 -90.999 134s-33.5 106 -33.5 164s11.167 112.667 33.5 164s52.666 96 90.999 134s83.166 68 134.499 90s106.333 33 165 33c58 0 112.667 -11 164 -33s96 -52 134 -90s68 -82.667 90 -134s33 -106.333 33 -165z" />
    <glyph glyph-name="A" unicode="A" horiz-adv-x="788" 
d="M35 79h82l138.5 326.5l138.5 326.5l138.5 -326.5l138.5 -326.5h82v-79h-222v79h56l-41.5 99l-41.5 99h-220l-84 -198h57v-79h-222v79zM403 515l-9.99902 32.999c-0.666992 -1.33301 -1.33398 -3.66602 -2.00098 -6.99902s-1.66699 -7 -3 -11
c-1.33301 -4.66699 -3 -9.66699 -5 -15c-8.66699 -19.333 -16.667 -38.333 -24 -57l-21 -52l-20 -50h152z" />
    <glyph glyph-name="B" unicode="B" horiz-adv-x="542" 
d="M35 79l44.999 -0.00195312v542h-45v79h228c32.667 0 62.5 -3.33301 89.5 -10s50 -17 69 -31s33.833 -32.167 44.5 -54.5s16 -48.833 16 -79.5c0 -41.333 -9.83301 -77.666 -29.5 -108.999s-49.5 -52.666 -89.5 -63.999c18.667 -4 36.834 -10.667 54.501 -20
s33 -21.333 46 -36s23.5 -31.667 31.5 -51s12 -41 12 -65c0 -30 -6.33301 -56.167 -19 -78.5s-29.5 -41 -50.5 -56s-45.167 -26.333 -72.5 -34s-55.333 -11.5 -84 -11.5h-246v79zM162.999 312.998v-234.002h111c20.667 0 40 2.33301 58 7s33.833 11.834 47.5 21.501
s24.5 21.5 32.5 35.5s12 30.667 12 50c0 20.667 -4.66699 38.667 -14 54s-21.5 27.833 -36.5 37.5s-32.5 16.834 -52.5 21.501s-40.333 7 -61 7h-97zM162.999 620.996v-229h108c39.333 0 70.5 11 93.5 33s34.5 51 34.5 87c0 39.333 -12 67.333 -36 84s-55.333 25 -94 25
h-106z" />
    <glyph glyph-name="C" unicode="C" horiz-adv-x="610" 
d="M496 546l0.000976562 61.0029c-33.333 14.667 -68 22 -104 22c-38 0 -73.5 -7.33301 -106.5 -22s-62 -34.834 -87 -60.501s-44.667 -55.5 -59 -89.5s-21.5 -70 -21.5 -108s7.16699 -74 21.5 -108s34 -63.5 59 -88.5s54 -44.833 87 -59.5s68.5 -22 106.5 -22
c49.333 0 95 12.333 137 37l45 -66c-26.667 -15.333 -55.167 -27.5 -85.5 -36.5s-62.5 -13.5 -96.5 -13.5c-49.333 0 -95.666 9.33301 -138.999 28s-81.166 44.167 -113.499 76.5s-57.833 70.166 -76.5 113.499s-28 89.666 -28 138.999s9.33301 95.833 28 139.5
s44.167 81.667 76.5 114s70.166 58 113.499 77s89.666 28.5 138.999 28.5c34 0 66.167 -4.33301 96.5 -13s59.166 -21 86.499 -37v-112h-79z" />
    <glyph glyph-name="D" unicode="D" horiz-adv-x="632" 
d="M35 80h47.001v541h-47v79h210c48 0 93.333 -8.16699 136 -24.5s80 -39.833 112 -70.5s57.333 -67.5 76 -110.5s28 -91.5 28 -145.5c0 -39.333 -6.83301 -79.666 -20.5 -120.999s-35.834 -78.833 -66.501 -112.5s-70.5 -61.334 -119.5 -83.001
s-108.833 -32.5 -179.5 -32.5h-176v80zM165.001 621v-541.001h70c39.333 0 76 6.33301 110 19s63.5 30.834 88.5 54.501s44.667 52 59 85s21.5 70.167 21.5 111.5s-7.16699 78.666 -21.5 111.999s-34 61.833 -59 85.5s-54.5 41.834 -88.5 54.501s-70.667 19 -110 19h-70z
" />
    <glyph glyph-name="E" unicode="E" horiz-adv-x="571" 
d="M35 79h56v542h-56v79h487v-154h-79v75h-269v-229h309v-79h-309v-234h283v75h79v-154h-501v79z" />
    <glyph glyph-name="F" unicode="F" horiz-adv-x="557" 
d="M35 79h56v542h-56v79h487v-154h-79v75h-269v-229h309v-79h-309v-234h103v-79h-242v79z" />
    <glyph glyph-name="G" unicode="G" horiz-adv-x="609" 
d="M574 298l0.00195312 -257.997c-26.667 -15.333 -55.167 -27.5 -85.5 -36.5s-62.5 -13.5 -96.5 -13.5c-49.333 0 -95.666 9.33301 -138.999 28s-81.166 44.167 -113.499 76.5s-57.833 70.166 -76.5 113.499s-28 89.666 -28 138.999s9.33301 95.833 28 139.5
s44.167 81.667 76.5 114s70.166 58 113.499 77s89.666 28.5 138.999 28.5c34 0 66.167 -4.33301 96.5 -13s59.166 -21 86.499 -37l-46 -67c-20.667 12 -42.334 21.333 -65.001 28s-46.667 10 -72 10c-38 0 -73.5 -7.33301 -106.5 -22s-62 -34.834 -87 -60.501
s-44.667 -55.5 -59 -89.5s-21.5 -70 -21.5 -108s7.16699 -74 21.5 -108s34 -63.5 59 -88.5s54 -44.833 87 -59.5s68.5 -22 106.5 -22c34.667 0 67.667 6 99 18v132h-103v79h186z" />
    <glyph glyph-name="H" unicode="H" horiz-adv-x="772" 
d="M495 700h242v-79h-79v-542h79v-79h-242v79h80v234h-378v-234h80v-79h-242v79h79v542h-79v79h242v-79h-80v-229h378v229h-80v79z" />
    <glyph glyph-name="I" unicode="I" horiz-adv-x="312" 
d="M35 79h79v542h-79v79h242v-79h-80v-542h80v-79h-242v79z" />
    <glyph glyph-name="J" unicode="J" horiz-adv-x="311" 
d="M35 700l240.999 0.00195312v-610c0 -37.333 -6.16699 -70.333 -18.5 -99s-29.166 -52.834 -50.499 -72.501s-46.833 -34.834 -76.5 -45.501s-61.5 -16.334 -95.5 -17.001v79c46 2.66699 83.833 17.334 113.5 44.001s44.5 64.667 44.5 114v528h-158v79z" />
    <glyph glyph-name="K" unicode="K" horiz-adv-x="686" 
d="M429 79l52 -0.00195312l-112.5 141.5l-111.5 142.5l-62 -59v-225h82v-79h-242v79h77v542h-77v79h222v-79h-62v-195c-0.666992 -5.33301 -1.16699 -10.666 -1.5 -15.999s-0.833008 -10.666 -1.5 -15.999l19 23l214 204h-37v79h222v-79h-83l-215 -205l133.5 -168.5
l133.5 -168.5h72v-79h-222v79z" />
    <glyph glyph-name="L" unicode="L" horiz-adv-x="571" 
d="M35 79h56v542h-56v79h222v-79h-83v-542h283v75h79v-154h-501v79z" />
    <glyph glyph-name="M" unicode="M" horiz-adv-x="976" 
d="M829 700h112v-79h-87v-542h87v-79h-242v79h72v391c0.666992 5.33301 1.16699 10.666 1.5 15.999s0.833008 10.666 1.5 15.999l-16 -23l-16 -23c-40 -56.667 -81.833 -112.167 -125.5 -166.5l-128.5 -164.5l-268 350l-18 27
c0.666992 -5.33301 1.16699 -10.666 1.5 -15.999s0.833008 -10.666 1.5 -15.999v-391h72v-79h-242v79h87v542h-87v79h112l170.5 -221.5l170.5 -221.5l170.5 221.5z" />
    <glyph glyph-name="N" unicode="N" horiz-adv-x="855" 
d="M35 79h87v542h-87v79h116l483 -523l19 -26l-3 32v438h-72v79h242v-79h-87v-653l-512 544l-19 26l3 -32v-427h72v-79h-242v79z" />
    <glyph glyph-name="O" unicode="O" horiz-adv-x="786" 
d="M35 349c0 48.667 9.33301 94.834 28 138.501s44.167 81.834 76.5 114.501s70.166 58.5 113.499 77.5s89.666 28.5 138.999 28.5c48.667 0 94.834 -9.5 138.501 -28.5s81.834 -44.833 114.501 -77.5s58.5 -70.834 77.5 -114.501s28.5 -89.834 28.5 -138.501
c0 -49.333 -9.5 -95.666 -28.5 -138.999s-44.833 -81.166 -77.5 -113.499s-70.834 -57.833 -114.501 -76.5s-89.834 -28 -138.501 -28c-49.333 0 -95.666 9.33301 -138.999 28s-81.166 44.167 -113.499 76.5s-57.833 70.166 -76.5 113.499s-28 89.666 -28 138.999zM118 349
c0 -38.667 7.16699 -74.834 21.5 -108.501s34 -63 59 -88s54.167 -44.833 87.5 -59.5s69 -22 107 -22s73.667 7.33301 107 22s62.5 34.5 87.5 59.5s44.667 54.333 59 88s21.5 69.834 21.5 108.501s-7.16699 74.834 -21.5 108.501s-34 63.167 -59 88.5
s-54.167 45.333 -87.5 60s-69 22 -107 22s-73.667 -7.33301 -107 -22s-62.5 -34.667 -87.5 -60s-44.667 -54.833 -59 -88.5s-21.5 -69.834 -21.5 -108.501z" />
    <glyph glyph-name="P" unicode="P" horiz-adv-x="517" 
d="M35 79l44.999 0.000976562v542h-45v79h210c22.667 0 47.834 -3.5 75.501 -10.5s53.5 -18.167 77.5 -33.5s44 -35 60 -59s24 -53 24 -87c0 -60.667 -18 -108.834 -54 -144.501s-88 -53.5 -156 -53.5h-109v-233h114v-79h-242v79zM162.999 392.001l87 0.000976562
c29.333 0 53.5 3.83301 72.5 11.5s34.167 17.167 45.5 28.5s19.333 24 24 38s7 27.333 7 40c0 14.667 -3.83301 28.667 -11.5 42s-18 25.166 -31 35.499s-28.667 18.5 -47 24.5s-37.833 9 -58.5 9h-88v-229z" />
    <glyph glyph-name="Q" unicode="Q" horiz-adv-x="808" 
d="M118 349c0 -38 7.16699 -74 21.5 -108s34 -63.5 59 -88.5s54 -44.833 87 -59.5s68.5 -22 106.5 -22s73.667 7.33301 107 22s62.5 34.5 87.5 59.5s44.833 54.5 59.5 88.5s22 70 22 108s-7.33301 74 -22 108s-34.5 63.833 -59.5 89.5s-54.167 45.834 -87.5 60.501
s-69 22 -107 22s-73.5 -7.33301 -106.5 -22s-62 -34.834 -87 -60.501s-44.667 -55.5 -59 -89.5s-21.5 -70 -21.5 -108zM35 349c0 49.333 9.33301 95.8359 28 139.503s44.167 81.667 76.5 114s70.166 58 113.499 77s89.666 28.5 138.999 28.5s95.833 -9.5 139.5 -28.5
s81.667 -44.667 114 -77s58 -70.333 77 -114s28.5 -90.167 28.5 -139.5c0 -54 -11.333 -104.333 -34 -151s-53 -86.334 -91 -119.001h147v-79h-307c-25.333 -5.33301 -50 -8 -74 -8c-49.333 0 -95.666 9.33301 -138.999 28s-81.166 44.167 -113.499 76.5
s-57.833 70.166 -76.5 113.499s-28 89.666 -28 138.999z" />
    <glyph glyph-name="R" unicode="R" horiz-adv-x="576" 
d="M35 79l44.999 0.000976562v542h-45v79h210c22.667 0 47.834 -3.5 75.501 -10.5s53.5 -18.167 77.5 -33.5s44 -35 60 -59s24 -53 24 -87c0 -50 -12.5 -91.833 -37.5 -125.5s-61.5 -55.834 -109.5 -66.501l112 -239h94v-79h-146l-147 312h-43h-42v-233h114v-79h-242v79z
M162.999 392.001l87 0.000976562c29.333 0 53.5 3.83301 72.5 11.5s34.167 17.167 45.5 28.5s19.333 24 24 38s7 27.333 7 40c0 14.667 -3.83301 28.667 -11.5 42s-18 25.166 -31 35.499s-28.667 18.5 -47 24.5s-37.833 9 -58.5 9h-88v-229z" />
    <glyph glyph-name="S" unicode="S" horiz-adv-x="478" 
d="M21 93l0.00683594 115.998h79v-89c17.333 -13.333 38 -24.833 62 -34.5s51 -14.5 81 -14.5c17.333 0 34 2.5 50 7.5s30.167 12.333 42.5 22s22.166 21.834 29.499 36.501s11 31.667 11 51c0 34.667 -8 61.334 -24 80.001s-36 33.167 -60 43.5s-50 19.166 -78 26.499
s-54.167 17.333 -78.5 30s-44.666 30.334 -60.999 53.001s-24.833 54.667 -25.5 96c-0.666992 22 2.33301 44 9 66s17.667 42 33 60s35.666 32.667 60.999 44s56.333 17 93 17c12 0 25 -0.666992 39 -2s28.667 -4 44 -8s31.166 -10 47.499 -18s32.5 -18.667 48.5 -32v-98
h-79v59c-12.667 5.33301 -27.334 10 -44.001 14s-35 6 -55 6c-38.667 0 -67.334 -11 -86.001 -33s-28 -48 -28 -78c0 -20 4.66699 -36.167 14 -48.5s21.666 -22.666 36.999 -30.999s32.833 -15.5 52.5 -21.5s39.667 -12.5 60 -19.5s40.333 -15.333 60 -25
s37.167 -22.334 52.5 -38.001s27.666 -35 36.999 -58s14 -51.5 14 -85.5c0 -30 -5.5 -57 -16.5 -81s-26 -44.5 -45 -61.5s-41.167 -30 -66.5 -39s-52 -13.5 -80 -13.5c-25.333 0 -50 2.83301 -74 8.5s-46 13.167 -66 22.5s-37.833 20 -53.5 32s-27.834 24.667 -36.501 38z
" />
    <glyph glyph-name="T" unicode="T" horiz-adv-x="623" 
d="M185 79h86v542h-157v-75h-79v154h553v-154h-79v75h-155v-542h73v-79h-242v79z" />
    <glyph glyph-name="U" unicode="U" horiz-adv-x="729" 
d="M35 700h242.001v-79h-82v-392c0 -25.333 4.16699 -47.833 12.5 -67.5s20 -36.167 35 -49.5s32.833 -23.5 53.5 -30.5s43.334 -10.5 68.001 -10.5s47.334 3.5 68.001 10.5s38.5 17.167 53.5 30.5s26.833 29.833 35.5 49.5s13 42.167 13 67.5v392h-82v79h242v-79h-77v-395
c0 -38 -6.5 -71.667 -19.5 -101s-30.833 -53.833 -53.5 -73.5s-49.334 -34.5 -80.001 -44.5s-64 -15 -100 -15s-69.333 5 -100 15s-57.334 24.833 -80.001 44.5s-40.334 44.167 -53.001 73.5s-19 63 -19 101v395h-77v79z" />
    <glyph glyph-name="V" unicode="V" horiz-adv-x="810" 
d="M35 700h242v-79h-72l92.5 -218l92.5 -218l9 -33l9 33l92.5 217.5l91.5 218.5h-59v79h242v-79h-99l-138.5 -326.5l-138.5 -326.5l-138.5 326.5l-138.5 326.5h-87v79z" />
    <glyph glyph-name="W" unicode="W" horiz-adv-x="1178" 
d="M35 700l242 -0.00195312v-79h-72l92.5 -218l92.5 -218l9 -33c8 30 17.833 59.833 29.5 89.5s24 59.334 37 89.001l40 88.5c13.667 29.333 26.5 58.333 38.5 87l-24.5 57.5l-24.5 57.5h-92v79h242v-79h-67l92.5 -218l92.5 -218l9 -33l9 33l92.5 217.5l91.5 218.5h-64v79
h242v-79h-94l-138.5 -326.5l-138.5 -326.5l-177 417l-10 35c-9.33301 -37.333 -21.333 -75.166 -36 -113.499s-30.667 -76.5 -48 -114.5l-52.5 -113.5c-17.667 -37.667 -34.167 -74.5 -49.5 -110.5l-138.5 326.5l-138.5 326.5h-87v79z" />
    <glyph glyph-name="X" unicode="X" horiz-adv-x="694" 
d="M35 700l242 -0.00195312v-79h-55l56 -86.5l56 -85.5l13 -27l13 27l112 172h-55v79h242v-79h-86l-87 -135.5l-88 -134.5l89 -136l89 -136h83v-79h-242v79h55l-116 179c-2.66699 4.66699 -5 9.33398 -7 14.001s-4.33301 9.33398 -7 14.001l-13 -28l-58 -89.5l-58 -89.5h64
v-79h-242v79h75l182 278l-172 264h-85v79z" />
    <glyph glyph-name="Y" unicode="Y" horiz-adv-x="789" 
d="M277 79h67v191l-104.5 175.5l-103.5 175.5h-101v79h242v-79h-40l73 -122l73 -122l11 -31h1l12 31l144 244h-39v79h242v-79h-101l-103.5 -176l-103.5 -176v-190h73v-79h-242v79z" />
    <glyph glyph-name="Z" unicode="Z" horiz-adv-x="629" 
d="M594 242v-242h-559v80l428 541h-412v114h83v-35h431v-79l-428 -541h378v162h79z" />
    <glyph glyph-name="bracketleft" unicode="[" horiz-adv-x="338" 
d="M83 -149v895h192v-81h-109v-733h109v-81h-192z" />
    <glyph glyph-name="backslash" unicode="\" horiz-adv-x="385" 
d="M94 736l139 -377.5l139 -377.5h-94l-139 377.5l-139 377.5h94z" />
    <glyph glyph-name="bracketright" unicode="]" horiz-adv-x="342" 
d="M251 746v-895h-192v81h109v733h-109v81h192z" />
    <glyph glyph-name="asciicircum" unicode="^" horiz-adv-x="470" 
d="M232 660l60 -90.5l60 -90.5h-59l-30.5 36l-30.5 36l-30.5 -36l-30.5 -36h-59l60 90.5z" />
    <glyph glyph-name="underscore" unicode="_" horiz-adv-x="600" 
d="M500 0h-400v81h400v-81z" />
    <glyph glyph-name="grave" unicode="`" horiz-adv-x="200" 
d="M33 612l45 -66.5l45 -66.5h-59l-57.5 66.5l-57.5 66.5h84z" />
    <glyph glyph-name="a" unicode="a" 
d="M35 187c0 26 5.16699 50.998 15.5 74.998s24.5 45 42.5 63s39.333 32.333 64 43s51 16 79 16c18 0 34.667 -2.66699 50 -8s28.666 -11.166 39.999 -17.499s20.333 -12.5 27 -18.5s10 -10 10 -12c0 7.33301 0.666992 15 2 23s2 16 2 24h69v-296h76v-79h-149v20v20
c-0.666992 -2 -4 -5.66699 -10 -11s-14.5 -10.833 -25.5 -16.5s-24.167 -10.667 -39.5 -15s-32.666 -6.5 -51.999 -6.5c-28 0 -54.333 5.16699 -79 15.5s-46 24.5 -64 42.5s-32.167 38.833 -42.5 62.5s-15.5 48.834 -15.5 75.501zM119 187.998
c0 -32.667 10.833 -60.167 32.5 -82.5s49.834 -33.5 84.501 -33.5s62.834 11.167 84.501 33.5s32.5 49.833 32.5 82.5c0 33.333 -10.833 60.833 -32.5 82.5s-49.834 32.5 -84.501 32.5s-62.834 -10.833 -84.501 -32.5s-32.5 -49.167 -32.5 -82.5z" />
    <glyph glyph-name="b" unicode="b" 
d="M35 79l75.999 0.000976562v592h-66v79h149v-388c-1.33301 -5.33301 -3 -10.5 -5 -15.5s-3.66699 -10.167 -5 -15.5c0.666992 2 4.5 6 11.5 12s16.167 12 27.5 18s24.5 11.333 39.5 16s31.167 7 48.5 7c28 0 54.333 -5.16699 79 -15.5s46 -24.5 64 -42.5
s32.167 -38.833 42.5 -62.5s15.5 -48.834 15.5 -75.501s-5.16699 -52 -15.5 -76s-24.5 -45 -42.5 -63s-39.333 -32.167 -64 -42.5s-51 -15.5 -79 -15.5c-19.333 0 -36.666 2.16699 -51.999 6.5s-28.5 9.33301 -39.5 15s-19.5 11.167 -25.5 16.5s-9.33301 9 -10 11v-20v-20
h-149v79zM427.999 188.001c0 33.333 -10.833 60.833 -32.5 82.5s-49.834 32.5 -84.501 32.5s-62.834 -10.833 -84.501 -32.5s-32.5 -49.167 -32.5 -82.5c0 -32.667 10.833 -60.167 32.5 -82.5s49.834 -33.5 84.501 -33.5s62.834 11.167 84.501 33.5s32.5 49.833 32.5 82.5z
" />
    <glyph glyph-name="c" unicode="c" horiz-adv-x="397" 
d="M360 34c-17.333 -13.333 -36.498 -23.833 -57.498 -31.5s-43.5 -11.5 -67.5 -11.5c-28 0 -54.167 5.16699 -78.5 15.5s-45.5 24.5 -63.5 42.5s-32.167 38.833 -42.5 62.5s-15.5 49.167 -15.5 76.5c0 26.667 5.16699 52 15.5 76s24.5 44.833 42.5 62.5
s39.167 31.667 63.5 42s50.5 15.5 78.5 15.5c24.667 0 47.667 -3.83301 69 -11.5s40.666 -18.167 57.999 -31.5v-116h-74v67c-16.667 7.33301 -34.334 11 -53.001 11c-34.667 0 -62.834 -10.833 -84.501 -32.5s-32.5 -49.167 -32.5 -82.5
c0 -32.667 10.833 -60.167 32.5 -82.5s49.834 -33.5 84.501 -33.5c29.333 0 54.333 8.33301 75 25z" />
    <glyph glyph-name="d" unicode="d" 
d="M363 20l-0.000976562 19.999c-0.666992 -2 -4 -5.66699 -10 -11s-14.5 -10.833 -25.5 -16.5s-24.167 -10.667 -39.5 -15s-32.666 -6.5 -51.999 -6.5c-28 0 -54.333 5.16699 -79 15.5s-46 24.5 -64 42.5s-32.167 39 -42.5 63s-15.5 49.333 -15.5 76
s5.16699 51.834 15.5 75.501s24.5 44.5 42.5 62.5s39.333 32.167 64 42.5s51 15.5 79 15.5c16.667 0 32.5 -2.33301 47.5 -7s28.167 -10 39.5 -16s20.5 -12 27.5 -18s11.167 -10 12.5 -12c-1.33301 5.33301 -3 10.5 -5 15.5s-3.66699 10.167 -5 15.5v309h-66v79h149v-671h76
v-79h-149v20zM118.999 187.999c0 -32.667 10.833 -60.167 32.5 -82.5s49.834 -33.5 84.501 -33.5s62.834 11.167 84.501 33.5s32.5 49.833 32.5 82.5c0 33.333 -10.833 60.833 -32.5 82.5s-49.834 32.5 -84.501 32.5s-62.834 -10.833 -84.501 -32.5
s-32.5 -49.167 -32.5 -82.5z" />
    <glyph glyph-name="e" unicode="e" horiz-adv-x="450" 
d="M235 303c-34 0 -61.668 -10.167 -83.001 -30.5s-32.666 -45.833 -33.999 -76.5l93.5 34.5l93.5 34.5c-9.33301 11.333 -19.833 20.5 -31.5 27.5s-24.5 10.5 -38.5 10.5zM410.999 218l-135.501 -50l-135.5 -50c10 -14 23.167 -25.167 39.5 -33.5s34.833 -12.5 55.5 -12.5
c30.667 0 56 10.667 76 32l51 -60c-16.667 -16.667 -35.667 -29.667 -57 -39s-44.666 -14 -69.999 -14c-28 0 -54.167 5.16699 -78.5 15.5s-45.5 24.5 -63.5 42.5s-32.167 38.833 -42.5 62.5s-15.5 49.167 -15.5 76.5c0 26.667 5.16699 52 15.5 76s24.5 44.833 42.5 62.5
s39.167 31.667 63.5 42s50.5 15.5 78.5 15.5c20.667 0 40.5 -4.16699 59.5 -12.5s36 -19.833 51 -34.5s28.167 -32.167 39.5 -52.5s20 -42.5 26 -66.5z" />
    <glyph glyph-name="f" unicode="f" horiz-adv-x="336" 
d="M35 79l61.001 0.000976562v215h-61v81h60v142c0 37.333 6.16699 70.333 18.5 99s29.166 52.834 50.499 72.501s46.833 34.667 76.5 45s61.5 16.166 95.5 17.499v-79c-46 -2.66699 -83.833 -17.334 -113.5 -44.001s-44.5 -64.667 -44.5 -114v-139h118v-81h-118v-215h79
v-79h-222v79z" />
    <glyph glyph-name="g" unicode="g" 
d="M367 375l145.004 -0.00195312v-79h-76v-356c0 -26.667 -5.16699 -51.5 -15.5 -74.5s-24.5 -43 -42.5 -60s-39 -30.5 -63 -40.5s-50 -15 -78 -15c-30 0 -59 6.5 -87 19.5s-52 26.5 -72 40.5l55 68c13.333 -10 28.833 -19.5 46.5 -28.5s36.167 -13.5 55.5 -13.5
c17.333 0 33.166 3 47.499 9s26.833 14.167 37.5 24.5s18.834 22.666 24.501 36.999s8.5 29.833 8.5 46.5v67c1.33301 2.66699 2.66602 5.5 3.99902 8.5s2.66602 6.16699 3.99902 9.5c-2 -3.33301 -6.33301 -7.5 -13 -12.5s-15.334 -10 -26.001 -15
s-23.167 -9.33301 -37.5 -13s-30.5 -5.5 -48.5 -5.5c-28 0 -54.333 5.16699 -79 15.5s-46 24.333 -64 42s-32.167 38.334 -42.5 62.001s-15.5 48.834 -15.5 75.501c0 26 5.16699 51 15.5 75s24.5 45 42.5 63s39.333 32.333 64 43s51 16 79 16c18 0 34.667 -2.66699 50 -8
s28.666 -11.166 39.999 -17.499s20.333 -12.5 27 -18.5s10 -10 10 -12c0 7.33301 0.666992 15 2 23s2 16 2 24zM119.004 187.998c0 -32.667 10.833 -60.167 32.5 -82.5s49.834 -33.5 84.501 -33.5s62.834 11.167 84.501 33.5s32.5 49.833 32.5 82.5
c0 33.333 -10.833 60.833 -32.5 82.5s-49.834 32.5 -84.501 32.5s-62.834 -10.833 -84.501 -32.5s-32.5 -49.167 -32.5 -82.5z" />
    <glyph glyph-name="h" unicode="h" horiz-adv-x="580" 
d="M323 79h77v155c-1.33301 18 -7.83301 33.5 -19.5 46.5s-30.167 20.167 -55.5 21.5c-17.333 0 -33.833 -3 -49.5 -9s-29.5 -14.333 -41.5 -25s-21.667 -23.334 -29 -38.001s-11 -30.667 -11 -48v-103h63v-79h-222v79h76v592h-76v79h159v-426l-3 -45
c14.667 32.667 36 57.834 64 75.501s61 27.5 99 29.5c39.333 0 70.333 -10.333 93 -31s34.667 -47.667 36 -81v-193h62v-79h-222v79z" />
    <glyph glyph-name="i" unicode="i" horiz-adv-x="292" 
d="M35 79h70v217h-70v79h153v-296h69v-79h-222v79zM96 520c0 15.333 5.33301 28 16 38s22.667 15 36 15c12.667 0 24.334 -5 35.001 -15s16 -22.667 16 -38s-5.33301 -27.833 -16 -37.5s-22.334 -14.5 -35.001 -14.5c-13.333 0 -25.333 4.83301 -36 14.5
s-16 22.167 -16 37.5z" />
    <glyph glyph-name="j" unicode="j" horiz-adv-x="212" 
d="M35 375l142.001 -0.000976562v-375c0 -40.667 -7 -76.167 -21 -106.5s-33.667 -55.166 -59 -74.499l-57 62c17.333 13.333 30.666 30 39.999 50s14 44 14 72v293h-59v79zM87.001 519.999c0 15.333 5.33301 28 16 38s22.667 15 36 15c12.667 0 24.334 -5 35.001 -15
s16 -22.667 16 -38s-5.33301 -27.833 -16 -37.5s-22.334 -14.5 -35.001 -14.5c-13.333 0 -25.333 4.83301 -36 14.5s-16 22.167 -16 37.5z" />
    <glyph glyph-name="k" unicode="k" horiz-adv-x="527" 
d="M291 79h11l-30 40.5l-29 40.5l-49 -46v-35h63v-79h-222v79h76v592h-66v79h149v-539l91 85h-37v79h201v-79h-62l-43 -41l-43 -41l48.5 -67.5l49.5 -67.5h93v-79h-201v79z" />
    <glyph glyph-name="l" unicode="l" horiz-adv-x="292" 
d="M35 79h76v592h-66v79h149v-671h63v-79h-222v79z" />
    <glyph glyph-name="m" unicode="m" horiz-adv-x="870" 
d="M613 79l76 0.00390625v155c-1.33301 18 -7.83301 33.5 -19.5 46.5s-30.167 20.167 -55.5 21.5c-17.333 0 -33.833 -3 -49.5 -9s-29.5 -14.333 -41.5 -25s-21.667 -23.334 -29 -38.001s-11 -30.667 -11 -48v-103h63v-79h-222v79h76v155
c-1.33301 18 -7.83301 33.5 -19.5 46.5s-30.167 20.167 -55.5 21.5c-17.333 0 -33.833 -3 -49.5 -9s-29.5 -14.333 -41.5 -25s-21.667 -23.334 -29 -38.001s-11 -30.667 -11 -48v-103h63v-79h-222v79h76v217h-66v79h139v-9l3.5 -43.5l3.5 -43.5
c14 32 35.167 57.167 63.5 75.5s61.5 28.166 99.5 29.499c36.667 0 66.167 -9.16699 88.5 -27.5s35.5 -42.5 39.5 -72.5c14.667 30.667 36 54.667 64 72s60.333 26.666 97 27.999c39.333 0 70.333 -10.333 93 -31s34.667 -47.667 36 -81v-193h63v-79h-222v79z" />
    <glyph glyph-name="n" unicode="n" horiz-adv-x="580" 
d="M323 79l77 0.000976562v155c-1.33301 18 -7.83301 33.5 -19.5 46.5s-30.167 20.167 -55.5 21.5c-17.333 0 -33.833 -3 -49.5 -9s-29.5 -14.333 -41.5 -25s-21.667 -23.334 -29 -38.001s-11 -30.667 -11 -48v-103h63v-79h-222v79h76v217h-66v79h139v-9l3.5 -43.5
l3.5 -43.5c13.333 32 34.833 57.5 64.5 76.5s62.5 28.5 98.5 28.5c39.333 0 70.333 -10.333 93 -31s34.667 -47.667 36 -81v-193h62v-79h-222v79z" />
    <glyph glyph-name="o" unicode="o" horiz-adv-x="471" 
d="M35 188c0 26.667 5.16699 52 15.5 76s24.5 44.833 42.5 62.5s39.167 31.667 63.5 42s50.5 15.5 78.5 15.5s54.333 -5.16699 79 -15.5s46 -24.333 64 -42s32.167 -38.5 42.5 -62.5s15.5 -49.333 15.5 -76c0 -27.333 -5.16699 -52.833 -15.5 -76.5s-24.5 -44.5 -42.5 -62.5
s-39.333 -32.167 -64 -42.5s-51 -15.5 -79 -15.5s-54.167 5.16699 -78.5 15.5s-45.5 24.5 -63.5 42.5s-32.167 38.833 -42.5 62.5s-15.5 49.167 -15.5 76.5zM118 187c0 -16 3 -31 9 -45s14.167 -26.167 24.5 -36.5s22.5 -18.5 36.5 -24.5s29 -9 45 -9s31 3 45 9
s26.333 14.167 37 24.5s19 22.5 25 36.5s9 29 9 45s-3 31 -9 45s-14.333 26.333 -25 37s-23 19 -37 25s-29 9 -45 9s-31 -3 -45 -9s-26.167 -14.333 -36.5 -25s-18.5 -23 -24.5 -37s-9 -29 -9 -45z" />
    <glyph glyph-name="p" unicode="p" horiz-adv-x="548" 
d="M45 -171h67.002v467h-77v79h146c0 -7.33301 0.333008 -15.166 1 -23.499s1.66699 -16.166 3 -23.499c0.666992 2 4.5 6.16699 11.5 12.5s16.167 12.666 27.5 18.999s24.5 12 39.5 17s31.167 7.5 48.5 7.5c28 0 54.333 -5.16699 79 -15.5s46 -24.5 64 -42.5
s32.167 -38.833 42.5 -62.5s15.5 -48.834 15.5 -75.501s-5.16699 -52 -15.5 -76s-24.5 -45 -42.5 -63s-39.333 -32.167 -64 -42.5s-51 -15.5 -79 -15.5c-18.667 0 -35.334 2 -50.001 6s-27.334 8.66699 -38.001 14s-19.167 10.5 -25.5 15.5s-10.5 8.83301 -12.5 11.5
c1.33301 -3.33301 2.83301 -6.5 4.5 -9.5s3.16699 -6.16699 4.5 -9.5v-190h72v-79h-222v79zM429.002 188c0 33.333 -10.833 60.833 -32.5 82.5s-49.834 32.5 -84.501 32.5s-62.834 -10.833 -84.501 -32.5s-32.5 -49.167 -32.5 -82.5c0 -32.667 10.833 -60.167 32.5 -82.5
s49.834 -33.5 84.501 -33.5s62.834 11.167 84.501 33.5s32.5 49.833 32.5 82.5z" />
    <glyph glyph-name="q" unicode="q" horiz-adv-x="551" 
d="M277 -171l76.002 -0.00195312v190c1.33301 3.33301 2.83301 6.5 4.5 9.5s3.16699 6.16699 4.5 9.5c-2 -2.66699 -6.33301 -6.5 -13 -11.5s-15.334 -10.167 -26.001 -15.5s-23.334 -10 -38.001 -14s-31 -6 -49 -6c-28 0 -54.333 5.16699 -79 15.5s-46 24.5 -64 42.5
s-32.167 39 -42.5 63s-15.5 49.333 -15.5 76s5.16699 51.834 15.5 75.501s24.5 44.5 42.5 62.5s39.333 32.167 64 42.5s51 15.5 79 15.5c17.333 0 33.5 -2.5 48.5 -7.5s28.167 -10.667 39.5 -17s20.333 -12.666 27 -18.999s10.667 -10.5 12 -12.5
c0 7.33301 0.666992 15 2 23s2 16 2 24h149v-79h-80v-467h63v-79h-222v79zM119.002 187.998c0 -32.667 10.833 -60.167 32.5 -82.5s49.834 -33.5 84.501 -33.5s62.834 11.167 84.501 33.5s32.5 49.833 32.5 82.5c0 33.333 -10.833 60.833 -32.5 82.5
s-49.834 32.5 -84.501 32.5s-62.834 -10.833 -84.501 -32.5s-32.5 -49.167 -32.5 -82.5z" />
    <glyph glyph-name="r" unicode="r" horiz-adv-x="370" 
d="M35 79l76.001 0.000976562v217h-66v79h139v-9l3.5 -43.5l3.5 -43.5c8 16.667 18.167 31.5 30.5 44.5s25.333 24 39 33s27 15.833 40 20.5s24.5 7 34.5 7l-6 -82c-40.667 0 -73.334 -11.333 -98.001 -34s-37 -51.334 -37 -86.001v-103h63v-79h-222v79z" />
    <glyph glyph-name="s" unicode="s" horiz-adv-x="332" 
d="M121 120l0.00488281 -38.998c8 -3.33301 15.833 -5.5 23.5 -6.5s17.167 -1.5 28.5 -1.5c0.666992 0 3.16699 0.166992 7.5 0.5s9.16602 1.66602 14.499 3.99902s10.166 5.83301 14.499 10.5s6.83301 11.667 7.5 21c0.666992 12 -2.66602 21.167 -9.99902 27.5
s-16.833 11.666 -28.5 15.999s-24.5 8.66602 -38.5 12.999s-27.167 10.333 -39.5 18s-22.5 18.5 -30.5 32.5s-12 32.667 -12 56c0 20.667 4 38 12 52s18 25.5 30 34.5s25 15.5 39 19.5s26.667 6 38 6c6.66699 0 14.834 -0.666992 24.501 -2s19.5 -3.66602 29.5 -6.99902
s19.833 -7.66602 29.5 -12.999s18.167 -12 25.5 -20v-87h-74v43c-10 3.33301 -20 5 -30 5c-14.667 0 -25.334 -3.16699 -32.001 -9.5s-9.33398 -14.833 -8.00098 -25.5c1.33301 -8 6.33301 -14.5 15 -19.5s18.834 -9.83301 30.501 -14.5s24.167 -10 37.5 -16
s25.666 -13.5 36.999 -22.5s20.666 -20.333 27.999 -34s11 -30.834 11 -51.501c0 -9.33301 -1.83301 -20.666 -5.5 -33.999s-10.167 -26.333 -19.5 -39s-22.333 -23.334 -39 -32.001s-38.334 -13 -65.001 -13c-24.667 0 -48.334 3.16699 -71.001 9.5
s-40.667 16.833 -54 31.5v87h74z" />
    <glyph glyph-name="t" unicode="t" horiz-adv-x="335" 
d="M119 619h83v-244h98v-81h-98v-215h75v-79h-158v294h-84v81h84v244z" />
    <glyph glyph-name="u" unicode="u" horiz-adv-x="570" 
d="M35 375l149 -0.000976562v-234c1.33301 -18 7.83301 -33.5 19.5 -46.5s30.167 -20.167 55.5 -21.5c17.333 0 33.833 3 49.5 9s29.5 14.333 41.5 25s21.667 23.334 29 38.001s11 30.667 11 48v103h-66v79h149v-305h62v-70h-145v51l3 45
c-13.333 -32 -34.833 -57.5 -64.5 -76.5s-62.5 -28.5 -98.5 -28.5c-39.333 0 -70.333 10.333 -93 31s-34.667 47.667 -36 81v193h-66v79z" />
    <glyph glyph-name="v" unicode="v" horiz-adv-x="584" 
d="M35 375l222 0.000976562v-79h-52l50 -88c16 -29.333 28.667 -58.666 38 -87.999c9.33301 29.333 21.833 58.666 37.5 87.999s32.167 58.666 49.5 87.999h-60v79h229v-79h-83l-86.5 -160l-86.5 -159l-87 159.5l-87 159.5h-84v79z" />
    <glyph glyph-name="w" unicode="w" horiz-adv-x="830" 
d="M581 375l214.001 -0.000976562v-79h-76l-80.5 -160l-80.5 -159l-136 269l-136 -269l-81 159.5l-81 159.5h-89v79h207v-79h-35l43 -87.5c14 -29 26 -58.5 36 -88.5c7.33301 22.667 16.166 44.834 26.499 66.501l31.5 65.5l10.5 22l10.5 22h-51v79h222v-79h-57l43 -87.5
c14 -29 26 -58.5 36 -88.5c10 30 21.833 59.5 35.5 88.5s28.167 58.167 43.5 87.5h-56v79z" />
    <glyph glyph-name="x" unicode="x" horiz-adv-x="526" 
d="M35 375h222v-79h-23l43 -59l42 59h-27v79h199v-79h-73l-89 -123l34.5 -47.5l35.5 -46.5h92v-79h-222v79h25l-20.5 27l-19.5 27l-20 -27l-20 -27h20v-79h-199v79h77l45.5 61.5l45.5 61.5l-34.5 47l-34.5 47h-99v79z" />
    <glyph glyph-name="y" unicode="y" horiz-adv-x="617" 
d="M92 -171h90l42.5 86l43.5 85l-74.5 148l-74.5 148h-84v79h222v-79h-53l58 -110.5c19.333 -37 35.333 -74.167 48 -111.5c12.667 37.333 28.5 74.5 47.5 111.5l57.5 110.5h-62v79h229v-79h-82l-117.5 -233.5l-117.5 -233.5h49v-79h-222v79z" />
    <glyph glyph-name="z" unicode="z" horiz-adv-x="435" 
d="M400 138v-137.999h-365v81l58.5 54.5l54 52.5l53.5 53c18 18 37.667 36.333 59 55h-213v114h74v-35h256v-81c-21.333 -18.667 -41 -36.834 -59 -54.501l-53.5 -52.5l-54 -52l-58.5 -54h174v57h74z" />
    <glyph glyph-name="braceleft" unicode="{" horiz-adv-x="320" 
d="M30 256l-0.000976562 81c16 0.666992 29.167 5.5 39.5 14.5s18.5 20.167 24.5 33.5s10 27.833 12 43.5s3 30.167 3 43.5v156c0 30.667 3.16699 54.167 9.5 70.5s14.833 28 25.5 35s23.167 10.833 37.5 11.5s29.5 1 45.5 1h63v-81h-44c-10 0 -18.333 -1.33301 -25 -4
s-12 -7.83398 -16 -15.501s-6.83301 -18.167 -8.5 -31.5s-2.5 -30.666 -2.5 -51.999v-129c0 -20.667 -2.16699 -38.5 -6.5 -53.5s-9.83301 -27.833 -16.5 -38.5s-13.667 -19.5 -21 -26.5s-14.333 -12.5 -21 -16.5c6.66699 -4 13.667 -9.5 21 -16.5s14.333 -16 21 -27
s12.167 -23.833 16.5 -38.5s6.5 -32 6.5 -52v-129c0 -21.333 0.833008 -38.833 2.5 -52.5s4.5 -24.167 8.5 -31.5s9.33301 -12.333 16 -15s15 -4 25 -4h44v-81h-63c-15.333 0 -30.166 0.333008 -44.499 1s-27 4.5 -38 11.5s-19.667 18.5 -26 34.5s-9.5 39.667 -9.5 71v152
c0 13.333 -1 27.833 -3 43.5s-6 30.167 -12 43.5s-14.167 24.5 -24.5 33.5s-23.5 13.833 -39.5 14.5z" />
    <glyph glyph-name="bar" unicode="|" horiz-adv-x="271" 
d="M91 -232v932h84v-932h-84z" />
    <glyph glyph-name="braceright" unicode="}" horiz-adv-x="320" 
d="M290 337v-81c-16 -0.666992 -29.167 -5.5 -39.5 -14.5s-18.333 -20.167 -24 -33.5s-9.66699 -27.833 -12 -43.5s-3.5 -30.167 -3.5 -43.5v-152c0 -31.333 -3.16699 -55 -9.5 -71s-14.833 -27.5 -25.5 -34.5s-23.167 -10.833 -37.5 -11.5s-29.5 -1 -45.5 -1h-63v81h44
c10 0 18.333 1.33301 25 4s12 7.66699 16 15s6.83301 17.833 8.5 31.5s2.5 31.167 2.5 52.5v129c0 20 2.16699 37.5 6.5 52.5s9.83301 27.833 16.5 38.5s13.834 19.5 21.501 26.5s14.5 12.5 20.5 16.5c-6.66699 4 -13.834 9.5 -21.501 16.5s-14.667 15.833 -21 26.5
s-11.666 23.5 -15.999 38.5s-6.5 32.833 -6.5 53.5v129c0 21.333 -0.833008 38.666 -2.5 51.999s-4.5 23.833 -8.5 31.5s-9.33301 12.834 -16 15.501s-15 4 -25 4h-44v81h63c15.333 0 30.166 -0.333008 44.499 -1s27 -4.5 38 -11.5s19.667 -18.5 26 -34.5
s9.5 -39.667 9.5 -71v-156c0 -13.333 1.16699 -27.833 3.5 -43.5s6.33301 -30.167 12 -43.5s13.667 -24.5 24 -33.5s23.5 -13.833 39.5 -14.5z" />
    <glyph glyph-name="asciitilde" unicode="~" horiz-adv-x="489" 
d="M271 481c-10 10.667 -18.834 17.668 -26.501 21.001s-16.167 5 -25.5 5s-20 -3 -32 -9s-19 -18.333 -21 -37l-45 3c0.666992 13.333 4 25.5 10 36.5s13.333 20.333 22 28s18.167 13.5 28.5 17.5s20.5 6 30.5 6c15.333 0 29.166 -3 41.499 -9s24.166 -14 35.499 -24
c10 -10.667 18.833 -17.667 26.5 -21s16.167 -5 25.5 -5c4.66699 0 9.83398 0.666992 15.501 2s11.167 3.66602 16.5 6.99902s9.83301 8 13.5 14s6.16699 13.667 7.5 23l45 -3c-0.666992 -13.333 -4 -25.5 -10 -36.5s-13.333 -20.167 -22 -27.5s-18.167 -13 -28.5 -17
s-20.5 -6 -30.5 -6c-15.333 0 -29.166 3 -41.499 9s-24.166 13.667 -35.499 23z" />
    <glyph glyph-name="exclamdown" unicode="&#xa1;" horiz-adv-x="200" 
d="M100 540c-13.333 0 -25.333 -4.99902 -36 -14.998s-16 -22.6641 -16 -37.9951s5.33301 -27.8301 16 -37.4961c10.667 -9.66504 22.667 -14.498 36 -14.498c12.667 0 24.334 4.83301 35.001 14.498c10.667 9.66602 16 22.165 16 37.4961s-5.33301 27.9961 -16 37.9951
s-22.334 14.998 -35.001 14.998zM58 -209.908h83v583.929h-83v-583.929z" />
    <glyph glyph-name="cent" unicode="&#xa2;" horiz-adv-x="385" 
d="M311 97l50 -63.001c-14.667 -11.333 -29.667 -20.166 -45 -26.499s-33 -11.166 -53 -14.499v-61h-84v68c-20.667 6 -39.834 15 -57.501 27s-32.834 26.167 -45.501 42.5s-22.5 34.666 -29.5 54.999s-10.5 41.5 -10.5 63.5s3.5 43 10.5 63s16.833 38.333 29.5 55
s27.834 31 45.501 43s36.834 21 57.501 27v62h84v-56c19.333 -2 37.333 -6.66699 54 -14s32 -16.333 46 -27l-1 -1v-29v-86h-74v67c-4 2 -8 3.5 -12 4.5s-8.33301 2.16699 -13 3.5v-226c8.66699 2 17.167 5 25.5 9s15.833 8.66699 22.5 14zM119 187.999
c0 -22.667 5.33301 -42.999 16 -60.999s25.334 -32 44.001 -42v204c-18.667 -9.33301 -33.334 -22.833 -44.001 -40.5s-16 -37.834 -16 -60.501z" />
    <glyph glyph-name="sterling" unicode="&#xa3;" horiz-adv-x="574" 
d="M547 0h-518.002v81h44c10.667 0 19.334 1.16699 26.001 3.5s12 7.16602 16 14.499s6.66699 17.5 8 30.5s2 30.167 2 51.5v92h-65v81h65v146c0 46 19.333 79.833 58 101.5s93 32.5 163 32.5c44.667 0 80.334 -10 107.001 -30s46.667 -43.333 60 -70l-63 -37l-11.5 16.5
c-4.33301 6.33301 -10.166 12.5 -17.499 18.5s-17 11 -29 15s-27.333 6 -46 6c-45.333 0 -79.5 -4.66699 -102.5 -14s-34.5 -29.666 -34.5 -60.999v-124h117v-81h-117v-110c0 -19.333 -0.833008 -35.5 -2.5 -48.5s-7.83398 -24.167 -18.501 -33.5h275v96
c14 0 28 0.166992 42 0.5s28 0.5 42 0.5v-178z" />
    <glyph glyph-name="currency" unicode="&#xa4;" horiz-adv-x="500" 
d="M171 360c0 -21.333 7.49805 -39.498 22.498 -54.498s33.167 -22.5 54.5 -22.5c10.667 0 20.834 2 30.501 6s18 9.5 25 16.5s12.5 15.167 16.5 24.5s6 19.333 6 30c0 21.333 -7.66699 39.666 -23 54.999s-33.666 23 -54.999 23c-10.667 0 -20.667 -2 -30 -6
s-17.5 -9.5 -24.5 -16.5s-12.5 -15.333 -16.5 -25s-6 -19.834 -6 -30.501zM86.998 361.002c0 14.667 1.8291 28.502 5.49609 41.502s8.83398 25.167 15.501 36.5l-11.5 12l-11.5 12l59 59l24 -24c12.667 6 25.334 11 38.001 15s26.334 6 41.001 6s28.667 -1.83301 42 -5.5
s26 -8.83398 38 -15.501l24 24l59 -59l-22 -22c14.667 -25.333 22 -52 22 -80c0 -29.333 -7.66699 -56.333 -23 -81l24 -24l-59 -59c-4.66699 4 -9 8.16699 -13 12.5s-8.33301 8.5 -13 12.5c-23.333 -13.333 -49.666 -20 -78.999 -20c-28 0 -54 6.33301 -78 19l-25 -25
l-59 59l24 24c-14.667 25.333 -22 52.666 -22 81.999z" />
    <glyph glyph-name="yen" unicode="&#xa5;" horiz-adv-x="638" 
d="M541 100h-117v-21h73v-79h-242v79h67v21h-115v81h115v82h-115v81h71l-164 277h-101v79h242v-79h-40l73 -122l73 -122l11 -31h1l12 31l144 244h-39v79h242v-79h-101l-81 -139l-82 -138h72v-81h-116v-27v-55h117v-81z" />
    <glyph glyph-name="brokenbar" unicode="&#xa6;" horiz-adv-x="215" 
d="M153 -233h-84v350h84v-350zM153 350h-84v350h84v-350z" />
    <glyph glyph-name="section" unicode="&#xa7;" horiz-adv-x="500" 
d="M194 360c0 -18 6.16699 -33.167 18.5 -45.5s27.5 -18.5 45.5 -18.5c17.333 0 32.333 6.16699 45 18.5s19 27.5 19 45.5c0 17.333 -6.16699 32.333 -18.5 45s-27.5 19 -45.5 19c-17.333 0 -32.333 -6.16699 -45 -18.5s-19 -27.5 -19 -45.5zM217 148l-43.4961 70.001
l-23.5 39.5c-5.33301 9 -8.66602 15 -9.99902 18s-2 5.16699 -2 6.5c-14 22.667 -21 48 -21 76c0 16.667 2.66699 33.167 8 49.5s13.166 31 23.499 44s23.166 23.833 38.499 32.5s33 14 53 16c-9.33301 14 -18 28.167 -26 42.5s-15.167 28.333 -21.5 42
s-11.333 26.334 -15 38.001s-5.5 21.5 -5.5 29.5c0 14 4 26.167 12 36.5s17.833 19.666 29.5 27.999s24.5 16.166 38.5 23.499s27 14.666 39 21.999c7.33301 -11.333 14.333 -23 21 -35s13.667 -23.667 21 -35l-39 -22c-8.66699 -5.33301 -15.167 -10.666 -19.5 -15.999
s-6.5 -11.666 -6.5 -18.999c0.666992 -6.66699 2.66699 -14.334 6 -23.001s8.66602 -19.334 15.999 -32.001l90 -149c13.333 -22 20 -46.667 20 -74c0 -17.333 -2.83301 -33.833 -8.5 -49.5s-13.834 -30 -24.501 -43s-23.667 -24 -39 -33s-33 -14.833 -53 -17.5
c19.333 -30 36 -59 50 -87s21 -50.333 21 -67c0 -14 -3.83301 -26.333 -11.5 -37s-17.5 -20.167 -29.5 -28.5s-24.833 -16 -38.5 -23s-26.5 -14.167 -38.5 -21.5c-7.33301 11.333 -14.333 23 -21 35s-13.667 23.667 -21 35l39 23
c7.33301 4.66699 13.166 9.33398 17.499 14.001s6.5 10.667 6.5 18c0 14 -10.667 38.333 -32 73z" />
    <glyph glyph-name="dieresis" unicode="&#xa8;" horiz-adv-x="370" 
d="M215 520c0 15.333 5.33301 28 16 38s22.667 15 36 15c12.667 0 24.334 -5 35.001 -15s16 -22.667 16 -38s-5.33301 -27.833 -16 -37.5s-22.334 -14.5 -35.001 -14.5c-13.333 0 -25.333 4.83301 -36 14.5s-16 22.167 -16 37.5zM49 520c0 15.333 5.33301 28 16 38
s22.667 15 36 15c12.667 0 24.334 -5 35.001 -15s16 -22.667 16 -38s-5.33301 -27.833 -16 -37.5s-22.334 -14.5 -35.001 -14.5c-13.333 0 -25.333 4.83301 -36 14.5s-16 22.167 -16 37.5z" />
    <glyph glyph-name="copyright" unicode="&#xa9;" horiz-adv-x="793" 
d="M400 148c31.333 0 60.666 5.66699 87.999 17s51 27 71 47s35.667 43.667 47 71s17 57 17 89c0 32.667 -5.66699 62.667 -17 90s-27 51 -47 71s-43.667 35.667 -71 47s-56.666 17 -87.999 17s-60.666 -5.66699 -87.999 -17s-51 -27 -71 -47s-35.667 -43.667 -47 -71
s-17 -57.333 -17 -90c0 -32 5.66699 -61.667 17 -89s27 -51 47 -71s43.667 -35.667 71 -47s56.666 -17 87.999 -17zM400 111c-36 0 -70 6.66699 -102 20s-59.833 31.666 -83.5 54.999s-42.5 50.833 -56.5 82.5s-21 66.167 -21 103.5c0 38 7 73 21 105s32.833 59.667 56.5 83
s51.5 41.5 83.5 54.5s66 19.5 102 19.5s70 -6.5 102 -19.5s59.833 -31.167 83.5 -54.5s42.5 -51 56.5 -83s21 -67 21 -105c0 -37.333 -7 -71.833 -21 -103.5s-32.833 -59.167 -56.5 -82.5s-51.5 -41.666 -83.5 -54.999s-66 -20 -102 -20zM465 464l-0.000976562 27.9941
c-15.333 6.66699 -31 10 -47 10c-17.333 0 -33.5 -3.33301 -48.5 -10s-28 -15.834 -39 -27.501s-19.833 -25.167 -26.5 -40.5s-10 -31.666 -10 -48.999s3.33301 -33.666 10 -48.999s15.5 -28.666 26.5 -39.999s24 -20.333 39 -27s31.167 -10 48.5 -10
c22.667 0 43.334 5.66699 62.001 17l20 -30c-12 -7.33301 -24.833 -13 -38.5 -17s-28.167 -6 -43.5 -6c-22 0 -42.833 4.33301 -62.5 13s-36.834 20.334 -51.501 35.001s-26.167 31.834 -34.5 51.501s-12.5 40.5 -12.5 62.5c0 22.667 4.16699 43.834 12.5 63.501
s19.833 36.834 34.5 51.501s31.834 26.167 51.501 34.5s40.5 12.5 62.5 12.5c29.333 0 57 -7.33301 83 -22v-51h-36z" />
    <glyph glyph-name="ordfeminine" unicode="&#xaa;" horiz-adv-x="585" 
d="M83 441c0 18.667 3.83301 36.665 11.5 53.998s18 32.5 31 45.5s28.333 23.333 46 31s36.5 11.5 56.5 11.5c13.333 0 25.5 -2 36.5 -6s20.5 -8.16699 28.5 -12.5s14.5 -8.66602 19.5 -12.999s7.5 -7.16602 7.5 -8.49902c0 5.33301 0.5 10.833 1.5 16.5
s1.5 11.167 1.5 16.5h50v-213h54v-57h-107v14v15c-0.666992 -1.33301 -3.16699 -4 -7.5 -8s-10.5 -8 -18.5 -12s-17.5 -7.5 -28.5 -10.5s-23.5 -4.5 -37.5 -4.5c-20 0 -38.833 3.66699 -56.5 11s-33 17.5 -46 30.5s-23.333 28 -31 45s-11.5 35.167 -11.5 54.5zM144 441.998
c0 -24 7.83301 -44 23.5 -60s35.834 -24 60.501 -24c25.333 0 45.833 8 61.5 24s23.5 36 23.5 60s-7.83301 43.833 -23.5 59.5s-36.167 23.5 -61.5 23.5c-24.667 0 -44.834 -7.83301 -60.501 -23.5s-23.5 -35.5 -23.5 -59.5z" />
    <glyph glyph-name="guillemotleft" unicode="&#xab;" horiz-adv-x="601" 
d="M459 77l-171 162l85.5 80.5l85.5 80.5v-94l-32.5 -33.5l-32.5 -33.5l32.5 -33.5l32.5 -33.5v-95zM288 77l-171 162l85.5 80.5l85.5 80.5v-95l-32.5 -33l-32.5 -33l32.5 -33.5l32.5 -33.5v-95z" />
    <glyph glyph-name="logicalnot" unicode="&#xac;" horiz-adv-x="559" 
d="M376 148v40h-276v60h360v-100h-84z" />
    <glyph glyph-name="registered" unicode="&#xae;" horiz-adv-x="801" 
d="M400 148c31.333 0 60.666 5.66699 87.999 17s51 27 71 47s35.667 43.667 47 71s17 57 17 89c0 32.667 -5.66699 62.667 -17 90s-27 51 -47 71s-43.667 35.667 -71 47s-56.666 17 -87.999 17s-60.666 -5.66699 -87.999 -17s-51 -27 -71 -47s-35.667 -43.667 -47 -71
s-17 -57.333 -17 -90c0 -32 5.66699 -61.667 17 -89s27 -51 47 -71s43.667 -35.667 71 -47s56.666 -17 87.999 -17zM400 111c-36 0 -70 6.66699 -102 20s-59.833 31.666 -83.5 54.999s-42.5 50.833 -56.5 82.5s-21 66.167 -21 103.5c0 38 7 73 21 105s32.833 59.667 56.5 83
s51.5 41.5 83.5 54.5s66 19.5 102 19.5s70 -6.5 102 -19.5s59.833 -31.167 83.5 -54.5s42.5 -51 56.5 -83s21 -67 21 -105c0 -37.333 -7 -71.833 -21 -103.5s-32.833 -59.167 -56.5 -82.5s-51.5 -41.666 -83.5 -54.999s-66 -20 -102 -20zM310 247l20.999 -0.00195312v257
h-21v37h99c10.667 0 22.5 -1.66699 35.5 -5s25.333 -8.66602 37 -15.999s21.334 -16.666 29.001 -27.999s11.5 -25 11.5 -41c0 -23.333 -6 -43 -18 -59s-29.333 -26.667 -52 -32l53 -113h44v-37h-69l-69 148h-21h-20v-111h54v-37h-114v37zM369.999 394.998h42
c14 0 25.5 1.83301 34.5 5.5s16.167 8.16699 21.5 13.5s9 11.333 11 18s3 13 3 19c0 14 -6.66699 26.333 -20 37s-30 16 -50 16h-42v-109z" />
    <glyph glyph-name="macron" unicode="&#xaf;" horiz-adv-x="399" 
d="M85 478v53h230v-53h-230z" />
    <glyph glyph-name="degree" unicode="&#xb0;" horiz-adv-x="282" 
d="M138 511c13.333 0 24.833 4.66699 34.5 14s14.5 20.666 14.5 33.999s-4.83301 24.833 -14.5 34.5s-21.167 14.5 -34.5 14.5s-24.666 -4.83301 -33.999 -14.5s-14 -21.167 -14 -34.5s4.66699 -24.666 14 -33.999s20.666 -14 33.999 -14zM36 560c0 14 2.66699 27 8 39
s12.5 22.5 21.5 31.5s19.833 16.167 32.5 21.5s26 8 40 8s27 -2.66699 39 -8s22.5 -12.5 31.5 -21.5s16.167 -19.5 21.5 -31.5s8 -25 8 -39s-2.66699 -27.167 -8 -39.5s-12.5 -23 -21.5 -32s-19.5 -16 -31.5 -21s-25 -7.5 -39 -7.5s-27.333 2.5 -40 7.5s-23.5 12 -32.5 21
s-16.167 19.667 -21.5 32s-8 25.5 -8 39.5z" />
    <glyph glyph-name="plusminus" unicode="&#xb1;" horiz-adv-x="524" 
d="M224 211v139h-138v81h138v140h84v-140h138v-81h-138v-139h-84zM446 100h-360v81h360v-81z" />
    <glyph glyph-name="twosuperior" unicode="&#xb2;" horiz-adv-x="398" 
d="M203 415l81.001 -0.00195312v46h39v-86h-219l59.5 59.5c19 19 35.833 37.5 50.5 55.5s26.5 35.5 35.5 52.5s13.5 33.167 13.5 48.5c0 12.667 -2 23.167 -6 31.5s-9 15.333 -15 21s-12.5 9.83398 -19.5 12.501s-13.5 4 -19.5 4c-12.667 0 -23 -2.16699 -31 -6.5
s-14.167 -9.66602 -18.5 -15.999s-7.5 -12.833 -9.5 -19.5s-3 -12.667 -3 -18c0 -11.333 1.66699 -21.166 5 -29.499s8 -15.833 14 -22.5l-24 -25c-6 4 -11.167 9 -15.5 15s-8 12.5 -11 19.5s-5.33301 14.167 -7 21.5s-2.5 14.333 -2.5 21c0 12.667 2.16699 25.167 6.5 37.5
s10.833 23.166 19.5 32.499s19.5 16.666 32.5 21.999s27.833 8 44.5 8c15.333 0 29.166 -2.83301 41.499 -8.5s23 -13.167 32 -22.5s15.833 -20.166 20.5 -32.499s7 -25.5 7 -39.5c0 -16 -2.83301 -31.667 -8.5 -47s-13.167 -30.666 -22.5 -45.999s-20 -30.333 -32 -45
s-24.667 -29.334 -38 -44.001z" />
    <glyph glyph-name="threesuperior" unicode="&#xb3;" horiz-adv-x="419" 
d="M124 541l69 119.001h-55v-23h-39v63h162l-70 -117c10.667 -4 20.5 -9.16699 29.5 -15.5s16.667 -13.833 23 -22.5s11.333 -18.167 15 -28.5s5.5 -21.5 5.5 -33.5c0 -14.667 -2.83301 -28.5 -8.5 -41.5s-13.5 -24.333 -23.5 -34s-21.5 -17.334 -34.5 -23.001
s-26.833 -8.5 -41.5 -8.5c-16 0 -30.667 3.16699 -44 9.5s-25 14.833 -35 25.5l30 28c6 -7.33301 13.167 -13 21.5 -17s17.5 -6 27.5 -6c9.33301 0 18 1.83301 26 5.5s15 8.5 21 14.5s10.833 13 14.5 21s5.5 16.667 5.5 26s-1.83301 18 -5.5 26s-8.5 15 -14.5 21
s-13 10.667 -21 14s-16.667 5 -26 5c-12 0 -22.667 -2.66699 -32 -8z" />
    <glyph glyph-name="acute" unicode="&#xb4;" horiz-adv-x="274" 
d="M100 479l45 66.5l45 66.5h84l-57.5 -66.5l-57.5 -66.5h-59z" />
    <glyph glyph-name="mu" unicode="&#xb5;" horiz-adv-x="545" 
d="M305 375l149 -0.000976562v-305h62v-70h-145v51l3 45c-13.333 -32 -34.833 -57.5 -64.5 -76.5s-62.5 -28.5 -98.5 -28.5c-16.667 0 -32 2 -46 6v-198h-83v497h-66v79h149v-234c1.33301 -18 7.83301 -33.5 19.5 -46.5s30.167 -20.167 55.5 -21.5c17.333 0 33.833 3 49.5 9
s29.5 14.333 41.5 25s21.667 23.334 29 38.001s11 30.667 11 48v103h-66v79z" />
    <glyph glyph-name="paragraph" unicode="&#xb6;" 
d="M284 0l-83 -0.000976562v423c-22.667 0 -44 4.16699 -64 12.5s-37.333 19.833 -52 34.5s-26.167 32 -34.5 52s-12.5 41.333 -12.5 64s4.16699 44 12.5 64s19.833 37.333 34.5 52s32 26.334 52 35.001s41.333 13 64 13h315v-70h-69v-610h69v-70h-152v680h-80v-680z" />
    <glyph glyph-name="periodcentered" unicode="&#xb7;" horiz-adv-x="168" 
d="M34 282c0 15.333 5.33301 28 16 38s22.667 15 36 15c12.667 0 24.334 -5 35.001 -15s16 -22.667 16 -38s-5.33301 -27.833 -16 -37.5s-22.334 -14.5 -35.001 -14.5c-13.333 0 -25.333 4.83301 -36 14.5s-16 22.167 -16 37.5z" />
    <glyph glyph-name="cedilla" unicode="&#xb8;" horiz-adv-x="452" 
d="M184 0l50.998 0.000976562v-7c0 -9.33301 1.33301 -16.833 4 -22.5s6.16699 -10.334 10.5 -14.001s9 -6.66699 14 -9s9.5 -5.16602 13.5 -8.49902c14 -10.667 23.833 -22.667 29.5 -36s8.5 -28.333 8.5 -45c0 -14 -2.16699 -27.5 -6.5 -40.5s-11 -24.5 -20 -34.5
s-20 -18 -33 -24s-28.167 -9 -45.5 -9c-22.667 0 -43.5 6.16699 -62.5 18.5s-32.833 31.166 -41.5 56.499l23 12l23 12c3.33301 -10.667 9.33301 -19.5 18 -26.5s19.667 -10.5 33 -10.5c16 0 28.333 5.33301 37 16s13 24 13 40c0 13.333 -3.66699 23.833 -11 31.5
s-15.166 14.5 -23.499 20.5s-16.166 12.333 -23.499 19s-11 15.667 -11 27v34z" />
    <glyph glyph-name="onesuperior" unicode="&#xb9;" horiz-adv-x="273" 
d="M53 437h36v226h-31v37h70v-263h36v-36h-111v36z" />
    <glyph glyph-name="ordmasculine" unicode="&#xba;" horiz-adv-x="469" 
d="M90 442c0 18.667 3.83301 36.667 11.5 54s18 32.5 31 45.5s28.167 23.167 45.5 30.5s36 11 56 11c20.667 0 39.834 -3.66699 57.501 -11s33 -17.5 46 -30.5s23.167 -28.167 30.5 -45.5s11 -35.333 11 -54c0 -20 -3.66699 -38.5 -11 -55.5s-17.5 -32 -30.5 -45
s-28.333 -23.167 -46 -30.5s-36.834 -11 -57.501 -11c-20 0 -38.667 3.66699 -56 11s-32.5 17.5 -45.5 30.5s-23.333 28 -31 45s-11.5 35.5 -11.5 55.5zM150 441c0 -11.333 2.16699 -22.166 6.5 -32.499s10.166 -19.166 17.499 -26.499s16.166 -13.166 26.499 -17.499
s21.166 -6.5 32.499 -6.5s22.166 2.16699 32.499 6.5s19.333 10.166 27 17.499s13.667 16.166 18 26.499s6.5 21.166 6.5 32.499s-2.16699 22 -6.5 32s-10.333 19 -18 27s-16.667 14.167 -27 18.5s-21.166 6.5 -32.499 6.5s-22.166 -2.16699 -32.499 -6.5
s-19.166 -10.5 -26.499 -18.5s-13.166 -17 -17.499 -27s-6.5 -20.667 -6.5 -32z" />
    <glyph glyph-name="guillemotright" unicode="&#xbb;" horiz-adv-x="601" 
d="M117.056 77l170.979 162l-85.4893 80.5l-85.4902 80.5v-94l32.4961 -33.5l32.4961 -33.5l-32.4961 -33.5l-32.4961 -33.5v-95zM288.035 77l170.979 162l-85.4902 80.5l-85.4893 80.5v-95l32.4961 -33l32.4961 -33l-32.4961 -33.5l-32.4961 -33.5v-95z" />
    <glyph glyph-name="onequarter" unicode="&#xbc;" horiz-adv-x="968" 
d="M256 -19l139 377.5l139 377.5h84l-139 -377.5l-139 -377.5h-84zM655 59h56v77h-210l272 354v-293h72v-61h-72v-77h62v-59h-180v59zM711 308l-85 -111h85v111zM113 290h56v348h-48v57h108v-405h56v-56h-172v56z" />
    <glyph glyph-name="onehalf" unicode="&#xbd;" horiz-adv-x="1069" 
d="M113 290h56v348h-48v57h108v-405h56v-56h-172v56zM689 57l115.996 -0.00292969v66h56v-123h-313l84.5 85.5c27.667 27.667 52 54.334 73 80.001s38 50.667 51 75s19.5 47.833 19.5 70.5c0 17.333 -2.83301 32.166 -8.5 44.499s-13 22.5 -22 30.5s-18.5 14 -28.5 18
s-19.333 6 -28 6c-18 0 -32.667 -3.16699 -44 -9.5s-20.333 -14 -27 -23s-11.167 -18.5 -13.5 -28.5s-3.5 -18.667 -3.5 -26c0 -15.333 2.33301 -29.166 7 -41.499s11.334 -23.166 20.001 -32.499l-35 -36c-8 5.33301 -15.167 12.333 -21.5 21s-11.833 18 -16.5 28
s-8.16699 20.333 -10.5 31s-3.5 20.667 -3.5 30c0 18.667 3.16699 36.834 9.5 54.501s15.833 33.167 28.5 46.5s28.167 23.833 46.5 31.5s39.5 11.5 63.5 11.5c22 0 42 -4 60 -12s33.333 -18.833 46 -32.5s22.5 -29.334 29.5 -47.001s10.5 -36.5 10.5 -56.5
c0 -23.333 -4.16699 -46 -12.5 -68s-19.166 -43.833 -32.499 -65.5s-28.666 -43.167 -45.999 -64.5s-35.666 -42.666 -54.999 -63.999zM255.996 -19.0029l139 377.5l139 377.5h84l-139 -377.5l-139 -377.5h-84z" />
    <glyph glyph-name="threequarters" unicode="&#xbe;" horiz-adv-x="1276" 
d="M212 457l108 186.995h-86v-36h-61v100h254l-111 -184c17.333 -6.66699 33 -15 47 -25s26.167 -21.667 36.5 -35s18.333 -28.166 24 -44.499s8.5 -33.833 8.5 -52.5c0 -23.333 -4.5 -45.166 -13.5 -65.499s-21.333 -38.166 -37 -53.499s-33.667 -27.333 -54 -36
s-42.166 -13 -65.499 -13c-24.667 0 -47.5 5 -68.5 15s-39.167 23.333 -54.5 40l47 44c9.33301 -11.333 20.5 -20.333 33.5 -27s27.167 -10 42.5 -10c14.667 0 28.334 2.83301 41.001 8.5s23.667 13.334 33 23.001s16.833 20.834 22.5 33.501s8.5 26.334 8.5 41.001
c0 14 -2.83301 27.333 -8.5 40s-13.167 23.667 -22.5 33s-20.333 16.666 -33 21.999s-26.334 8 -41.001 8c-18.667 0 -35.334 -4.33301 -50.001 -13zM446 -19.0049l139 377.5l139 377.5h84l-139 -377.5l-139 -377.5h-84zM854 58.9951h56v77h-210l272 354v-293h72v-61h-72
v-77h62v-59h-180v59zM910 307.995l-85 -111h85v111z" />
    <glyph glyph-name="questiondown" unicode="&#xbf;" horiz-adv-x="452" 
d="M354.014 -12.9326c11.999 -4.66602 24.1641 -9.16309 36.4961 -13.4961c12.3311 -4.33301 24.4961 -8.83301 36.4951 -13.5c-4.66602 -14.665 -11.332 -30.8301 -19.9971 -48.4951c-8.66602 -17.6641 -20.665 -34.1621 -35.9961 -49.4932
s-34.6621 -28.3291 -57.9932 -38.9941c-23.3301 -10.665 -51.9932 -15.998 -85.9893 -15.998c-27.3301 0 -52.9932 5.16602 -76.9902 15.498s-44.8281 24.3301 -62.4922 41.9941c-17.665 17.665 -31.4971 38.3291 -41.4961 61.9932
c-9.99902 23.6631 -14.998 48.8262 -14.998 75.4893c0 37.3291 8.83203 69.8252 26.4961 97.4883c17.665 27.6631 41.4951 52.8271 71.4912 75.4912l29.9971 20.4971c10.665 6.99902 20.6641 14.998 29.9961 23.9971s16.998 19.6641 22.9971 31.9961
s8.99902 27.4971 8.99902 45.4941v77.9902h83.9893v-96.9873c0 -21.3311 -3.33301 -38.6621 -9.99805 -51.9941c-6.66602 -13.3311 -15.665 -25.1631 -26.9971 -35.4951s-23.9971 -19.998 -37.9951 -28.9971c-13.999 -8.99902 -28.6641 -19.498 -43.9951 -31.4971
c-23.9971 -17.998 -41.6611 -37.6621 -52.9932 -58.9932s-16.998 -44.3281 -16.998 -68.9912c0 -32.6631 10.165 -59.8262 30.4961 -81.4902s47.1611 -32.4961 80.4902 -32.4961c37.3291 0 65.3262 8.33203 83.9912 24.9971c18.6641 16.665 32.9951 41.3291 42.9941 73.9922
zM264.025 539.002c13.3311 0 25.3291 -4.83301 35.9941 -14.498s15.998 -22.1641 15.998 -37.4961c0 -15.3311 -5.33301 -27.9961 -15.998 -37.9951s-22.6631 -14.998 -35.9941 -14.998c-12.665 0 -24.3301 4.99902 -34.9951 14.998s-15.998 22.6641 -15.998 37.9951
c0 15.332 5.33301 27.8311 15.998 37.4961s22.3301 14.498 34.9951 14.498z" />
    <glyph glyph-name="Agrave" unicode="&#xc0;" horiz-adv-x="788" 
d="M35 79h82l138.5 326.5l138.5 326.5l138.5 -326.5l138.5 -326.5h82v-79h-222v79h56l-41.5 99l-41.5 99h-220l-84 -198h57v-79h-222v79zM403 515l-9.99902 32.999c-0.666992 -1.33301 -1.33398 -3.66602 -2.00098 -6.99902s-1.66699 -7 -3 -11
c-1.33301 -4.66699 -3 -9.66699 -5 -15c-8.66699 -19.333 -16.667 -38.333 -24 -57l-21 -52l-20 -50h152zM329.001 882.999l45 -66.5l45 -66.5h-59l-57.5 66.5l-57.5 66.5h84z" />
    <glyph glyph-name="Aacute" unicode="&#xc1;" horiz-adv-x="788" 
d="M366 750l45 66.5l45 66.5h84l-57.5 -66.5l-57.5 -66.5h-59zM35 79h82l138.5 326.5l138.5 326.5l138.5 -326.5l138.5 -326.5h82v-79h-222v79h56l-41.5 99l-41.5 99h-220l-84 -198h57v-79h-222v79zM403 515l-9.99902 32.999
c-0.666992 -1.33301 -1.33398 -3.66602 -2.00098 -6.99902s-1.66699 -7 -3 -11c-1.33301 -4.66699 -3 -9.66699 -5 -15c-8.66699 -19.333 -16.667 -38.333 -24 -57l-21 -52l-20 -50h152z" />
    <glyph glyph-name="Acircumflex" unicode="&#xc2;" horiz-adv-x="788" 
d="M394 931l60 -90.5l60 -90.5h-59l-30.5 36l-30.5 36l-30.5 -36l-30.5 -36h-59l60 90.5zM35 79h82l138.5 326.5l138.5 326.5l138.5 -326.5l138.5 -326.5h82v-79h-222v79h56l-41.5 99l-41.5 99h-220l-84 -198h57v-79h-222v79zM403 515l-9.99902 32.999
c-0.666992 -1.33301 -1.33398 -3.66602 -2.00098 -6.99902s-1.66699 -7 -3 -11c-1.33301 -4.66699 -3 -9.66699 -5 -15c-8.66699 -19.333 -16.667 -38.333 -24 -57l-21 -52l-20 -50h152z" />
    <glyph glyph-name="Atilde" unicode="&#xc3;" horiz-adv-x="788" 
d="M384 785c-10 10.667 -18.834 17.668 -26.501 21.001s-16.167 5 -25.5 5s-20 -3 -32 -9s-19 -18.333 -21 -37l-45 3c0.666992 13.333 4 25.5 10 36.5s13.333 20.333 22 28s18.167 13.5 28.5 17.5s20.5 6 30.5 6c15.333 0 29.166 -3 41.499 -9s24.166 -14 35.499 -24
c10 -10.667 18.833 -17.667 26.5 -21s16.167 -5 25.5 -5c4.66699 0 9.83398 0.666992 15.501 2s11.167 3.66602 16.5 6.99902s9.83301 8 13.5 14s6.16699 13.667 7.5 23l45 -3c-0.666992 -13.333 -4 -25.5 -10 -36.5s-13.333 -20.167 -22 -27.5s-18.167 -13 -28.5 -17
s-20.5 -6 -30.5 -6c-15.333 0 -29.166 3 -41.499 9s-24.166 13.667 -35.499 23zM34.999 79.001h82l138.5 326.5l138.5 326.5l138.5 -326.5l138.5 -326.5h82v-79h-222v79h56l-41.5 99l-41.5 99h-220l-84 -198h57v-79h-222v79zM402.999 515.001l-9.99902 32.999
c-0.666992 -1.33301 -1.33398 -3.66602 -2.00098 -6.99902s-1.66699 -7 -3 -11c-1.33301 -4.66699 -3 -9.66699 -5 -15c-8.66699 -19.333 -16.667 -38.333 -24 -57l-21 -52l-20 -50h152z" />
    <glyph glyph-name="Adieresis" unicode="&#xc4;" horiz-adv-x="788" 
d="M425 810c0 15.333 5.33301 28 16 38s22.667 15 36 15c12.667 0 24.334 -5 35.001 -15s16 -22.667 16 -38s-5.33301 -27.833 -16 -37.5s-22.334 -14.5 -35.001 -14.5c-13.333 0 -25.333 4.83301 -36 14.5s-16 22.167 -16 37.5zM259 810c0 15.333 5.33301 28 16 38
s22.667 15 36 15c12.667 0 24.334 -5 35.001 -15s16 -22.667 16 -38s-5.33301 -27.833 -16 -37.5s-22.334 -14.5 -35.001 -14.5c-13.333 0 -25.333 4.83301 -36 14.5s-16 22.167 -16 37.5zM35 79h82l138.5 326.5l138.5 326.5l138.5 -326.5l138.5 -326.5h82v-79h-222v79h56
l-41.5 99l-41.5 99h-220l-84 -198h57v-79h-222v79zM403 515l-9.99902 32.999c-0.666992 -1.33301 -1.33398 -3.66602 -2.00098 -6.99902s-1.66699 -7 -3 -11c-1.33301 -4.66699 -3 -9.66699 -5 -15c-8.66699 -19.333 -16.667 -38.333 -24 -57l-21 -52l-20 -50h152z" />
    <glyph glyph-name="Aring" unicode="&#xc5;" horiz-adv-x="788" 
d="M35 79h82l138.5 326.5l138.5 326.5l138.5 -326.5l138.5 -326.5h82v-79h-222v79h56l-41.5 99l-41.5 99h-220l-84 -198h57v-79h-222v79zM403 515l-9.99902 32.999c-0.666992 -1.33301 -1.33398 -3.66602 -2.00098 -6.99902s-1.66699 -7 -3 -11
c-1.33301 -4.66699 -3 -9.66699 -5 -15c-8.66699 -19.333 -16.667 -38.333 -24 -57l-21 -52l-20 -50h152zM361.001 836.999c0 -9.33301 3 -17 9 -23s13.667 -9 23 -9s17.166 3 23.499 9s9.5 13.667 9.5 23s-3.16699 17.166 -9.5 23.499s-14.166 9.5 -23.499 9.5
s-17 -3.16699 -23 -9.5s-9 -14.166 -9 -23.499zM306.001 837.999c0 12 2.33301 23.167 7 33.5s11 19.5 19 27.5s17.167 14.333 27.5 19s21.5 7 33.5 7s23.167 -2.33301 33.5 -7s19.5 -11 27.5 -19s14.333 -17.167 19 -27.5s7 -21.5 7 -33.5s-2.33301 -23.167 -7 -33.5
s-11 -19.5 -19 -27.5s-17.167 -14.333 -27.5 -19s-21.5 -7 -33.5 -7s-23.167 2.33301 -33.5 7s-19.5 11 -27.5 19s-14.333 17.167 -19 27.5s-7 21.5 -7 33.5z" />
    <glyph glyph-name="AE" unicode="&#xc6;" horiz-adv-x="777" 
d="M649 546v75h-174v-229h214v-79h-214v-234h188v75h79v-154h-350v264h-115l-39.5 -92.5l-39.5 -92.5h59v-79h-222v79h80l131.5 310.5l131.5 310.5h350v-154h-79zM392 343v205c-9.33301 -34.667 -21.833 -69 -37.5 -103s-30.5 -68 -44.5 -102h82z" />
    <glyph glyph-name="Ccedilla" unicode="&#xc7;" horiz-adv-x="572" 
d="M496 436l0.00292969 171.004c-33.333 14.667 -68 22 -104 22c-38 0 -73.5 -7.33301 -106.5 -22s-62 -34.834 -87 -60.501s-44.667 -55.5 -59 -89.5s-21.5 -70 -21.5 -108s7.16699 -74 21.5 -108s34 -63.5 59 -88.5s54 -44.833 87 -59.5s68.5 -22 106.5 -22
c49.333 0 95 12.333 137 37l45 -66c-25.333 -14.667 -52 -26.334 -80 -35.001s-57.333 -13.667 -88 -15c0 -8.66699 0.333008 -13.334 1 -14.001c3.33301 -12.667 9.16602 -21 17.499 -25s16.166 -8.66699 23.499 -14c14 -10.667 23.833 -22.667 29.5 -36
s8.5 -28.333 8.5 -45c0 -14 -2.16699 -27.5 -6.5 -40.5s-11 -24.5 -20 -34.5s-20 -18 -33 -24s-28.167 -9 -45.5 -9c-22.667 0 -43.5 6.16699 -62.5 18.5s-32.833 31.166 -41.5 56.499l46 24c3.33301 -10.667 9.33301 -19.5 18 -26.5s19.667 -10.5 33 -10.5
c16 0 28.333 5.33301 37 16s13 24 13 40c0 13.333 -3.66699 23.833 -11 31.5s-15.166 14.5 -23.499 20.5s-16.166 12.333 -23.499 19s-11 15.667 -11 27v28c-45.333 4.66699 -87.333 17 -126 37s-72.5 45.833 -101.5 77.5s-51.667 68.167 -68 109.5s-24.5 85 -24.5 131
c0 49.333 9.33301 95.833 28 139.5s44.167 81.667 76.5 114s70.166 58 113.499 77s89.666 28.5 138.999 28.5c34 0 66.167 -4.33301 96.5 -13s59.166 -21 86.499 -37v-222h-79z" />
    <glyph glyph-name="Egrave" unicode="&#xc8;" horiz-adv-x="571" 
d="M35 79h56v542h-56v79h487v-154h-79v75h-269v-229h309v-79h-309v-234h283v75h79v-154h-501v79zM229 883l45 -66.5l45 -66.5h-59l-57.5 66.5l-57.5 66.5h84z" />
    <glyph glyph-name="Eacute" unicode="&#xc9;" horiz-adv-x="571" 
d="M35 79h56v542h-56v79h487v-154h-79v75h-269v-229h309v-79h-309v-234h283v75h79v-154h-501v79zM263 750l45 66.5l45 66.5h84l-57.5 -66.5l-57.5 -66.5h-59z" />
    <glyph glyph-name="Ecircumflex" unicode="&#xca;" horiz-adv-x="571" 
d="M35 79h56v542h-56v79h487v-154h-79v75h-269v-229h309v-79h-309v-234h283v75h79v-154h-501v79zM300 931l60 -90.5l60 -90.5h-59l-30.5 36l-30.5 36l-30.5 -36l-30.5 -36h-59l60 90.5z" />
    <glyph glyph-name="Edieresis" unicode="&#xcb;" horiz-adv-x="571" 
d="M35 79h56v542h-56v79h487v-154h-79v75h-269v-229h309v-79h-309v-234h283v75h79v-154h-501v79zM322 810c0 15.333 5.33301 28 16 38s22.667 15 36 15c12.667 0 24.334 -5 35.001 -15s16 -22.667 16 -38s-5.33301 -27.833 -16 -37.5s-22.334 -14.5 -35.001 -14.5
c-13.333 0 -25.333 4.83301 -36 14.5s-16 22.167 -16 37.5zM156 810c0 15.333 5.33301 28 16 38s22.667 15 36 15c12.667 0 24.334 -5 35.001 -15s16 -22.667 16 -38s-5.33301 -27.833 -16 -37.5s-22.334 -14.5 -35.001 -14.5c-13.333 0 -25.333 4.83301 -36 14.5
s-16 22.167 -16 37.5z" />
    <glyph glyph-name="Igrave" unicode="&#xcc;" horiz-adv-x="312" 
d="M35 79h79v542h-79v79h242v-79h-80v-542h80v-79h-242v79zM84 883l45 -66.5l45 -66.5h-59l-57.5 66.5l-57.5 66.5h84z" />
    <glyph glyph-name="Iacute" unicode="&#xcd;" horiz-adv-x="312" 
d="M35 79h79v542h-79v79h242v-79h-80v-542h80v-79h-242v79zM135 750l45 66.5l45 66.5h84l-57.5 -66.5l-57.5 -66.5h-59z" />
    <glyph glyph-name="Icircumflex" unicode="&#xce;" horiz-adv-x="315" 
d="M35 79h79v542h-79v79h242v-79h-80v-542h80v-79h-242v79zM158 931l60 -90.5l60 -90.5h-59l-30.5 36l-30.5 36l-30.5 -36l-30.5 -36h-59l60 90.5z" />
    <glyph glyph-name="Idieresis" unicode="&#xcf;" horiz-adv-x="315" 
d="M35 79h79v542h-79v79h242v-79h-80v-542h80v-79h-242v79zM189 810c0 15.333 5.33301 28 16 38s22.667 15 36 15c12.667 0 24.334 -5 35.001 -15s16 -22.667 16 -38s-5.33301 -27.833 -16 -37.5s-22.334 -14.5 -35.001 -14.5c-13.333 0 -25.333 4.83301 -36 14.5
s-16 22.167 -16 37.5zM23 810c0 15.333 5.33301 28 16 38s22.667 15 36 15c12.667 0 24.334 -5 35.001 -15s16 -22.667 16 -38s-5.33301 -27.833 -16 -37.5s-22.334 -14.5 -35.001 -14.5c-13.333 0 -25.333 4.83301 -36 14.5s-16 22.167 -16 37.5z" />
    <glyph glyph-name="Eth" unicode="&#xd0;" horiz-adv-x="632" 
d="M44 390h38.001v231h-47v79h210c48 0 93.333 -8.16699 136 -24.5s80 -39.833 112 -70.5s57.333 -67.5 76 -110.5s28 -91.5 28 -145.5c0 -39.333 -6.83301 -79.666 -20.5 -120.999s-35.834 -78.833 -66.501 -112.5s-70.5 -61.334 -119.5 -83.001
s-108.833 -32.5 -179.5 -32.5h-176v79h47v230h-38v81zM165.001 621v-230.998h181v-81h-181v-230h70c39.333 0 76 6.5 110 19.5s63.5 31.167 88.5 54.5s44.667 51.666 59 84.999s21.5 70.666 21.5 111.999s-7.16699 78.666 -21.5 111.999s-34 61.833 -59 85.5
s-54.5 41.834 -88.5 54.501s-70.667 19 -110 19h-70z" />
    <glyph glyph-name="Ntilde" unicode="&#xd1;" horiz-adv-x="817" 
d="M35 79h87v542h-87v79h116l483 -523l19 -26l-3 32v438h-72v79h242v-79h-87v-653l-512 544l-19 26l3 -32v-427h72v-79h-242v79zM391 773c-10 10.667 -18.834 17.668 -26.501 21.001s-16.167 5 -25.5 5s-20 -3 -32 -9s-19 -18.333 -21 -37l-45 3
c0.666992 13.333 4 25.5 10 36.5s13.333 20.333 22 28s18.167 13.5 28.5 17.5s20.5 6 30.5 6c15.333 0 29.166 -3 41.499 -9s24.166 -14 35.499 -24c10 -10.667 18.833 -17.667 26.5 -21s16.167 -5 25.5 -5c4.66699 0 9.83398 0.666992 15.501 2
s11.167 3.66602 16.5 6.99902s9.83301 8 13.5 14s6.16699 13.667 7.5 23l45 -3c-0.666992 -13.333 -4 -25.5 -10 -36.5s-13.333 -20.167 -22 -27.5s-18.167 -13 -28.5 -17s-20.5 -6 -30.5 -6c-15.333 0 -29.166 3 -41.499 9s-24.166 13.667 -35.499 23z" />
    <glyph glyph-name="Ograve" unicode="&#xd2;" horiz-adv-x="786" 
d="M35 349c0 48.667 9.33301 94.834 28 138.501s44.167 81.834 76.5 114.501s70.166 58.5 113.499 77.5s89.666 28.5 138.999 28.5c48.667 0 94.834 -9.5 138.501 -28.5s81.834 -44.833 114.501 -77.5s58.5 -70.834 77.5 -114.501s28.5 -89.834 28.5 -138.501
c0 -49.333 -9.5 -95.666 -28.5 -138.999s-44.833 -81.166 -77.5 -113.499s-70.834 -57.833 -114.501 -76.5s-89.834 -28 -138.501 -28c-49.333 0 -95.666 9.33301 -138.999 28s-81.166 44.167 -113.499 76.5s-57.833 70.166 -76.5 113.499s-28 89.666 -28 138.999zM118 349
c0 -38.667 7.16699 -74.834 21.5 -108.501s34 -63 59 -88s54.167 -44.833 87.5 -59.5s69 -22 107 -22s73.667 7.33301 107 22s62.5 34.5 87.5 59.5s44.667 54.333 59 88s21.5 69.834 21.5 108.501s-7.16699 74.834 -21.5 108.501s-34 63.167 -59 88.5
s-54.167 45.333 -87.5 60s-69 22 -107 22s-73.667 -7.33301 -107 -22s-62.5 -34.667 -87.5 -60s-44.667 -54.833 -59 -88.5s-21.5 -69.834 -21.5 -108.501zM343 883l45 -66.5l45 -66.5h-59l-57.5 66.5l-57.5 66.5h84z" />
    <glyph glyph-name="Oacute" unicode="&#xd3;" horiz-adv-x="786" 
d="M35 349c0 48.667 9.33301 94.834 28 138.501s44.167 81.834 76.5 114.501s70.166 58.5 113.499 77.5s89.666 28.5 138.999 28.5c48.667 0 94.834 -9.5 138.501 -28.5s81.834 -44.833 114.501 -77.5s58.5 -70.834 77.5 -114.501s28.5 -89.834 28.5 -138.501
c0 -49.333 -9.5 -95.666 -28.5 -138.999s-44.833 -81.166 -77.5 -113.499s-70.834 -57.833 -114.501 -76.5s-89.834 -28 -138.501 -28c-49.333 0 -95.666 9.33301 -138.999 28s-81.166 44.167 -113.499 76.5s-57.833 70.166 -76.5 113.499s-28 89.666 -28 138.999zM118 349
c0 -38.667 7.16699 -74.834 21.5 -108.501s34 -63 59 -88s54.167 -44.833 87.5 -59.5s69 -22 107 -22s73.667 7.33301 107 22s62.5 34.5 87.5 59.5s44.667 54.333 59 88s21.5 69.834 21.5 108.501s-7.16699 74.834 -21.5 108.501s-34 63.167 -59 88.5
s-54.167 45.333 -87.5 60s-69 22 -107 22s-73.667 -7.33301 -107 -22s-62.5 -34.667 -87.5 -60s-44.667 -54.833 -59 -88.5s-21.5 -69.834 -21.5 -108.501zM368 750l45 66.5l45 66.5h84l-57.5 -66.5l-57.5 -66.5h-59z" />
    <glyph glyph-name="Ocircumflex" unicode="&#xd4;" horiz-adv-x="786" 
d="M35 349c0 48.667 9.33301 94.834 28 138.501s44.167 81.834 76.5 114.501s70.166 58.5 113.499 77.5s89.666 28.5 138.999 28.5c48.667 0 94.834 -9.5 138.501 -28.5s81.834 -44.833 114.501 -77.5s58.5 -70.834 77.5 -114.501s28.5 -89.834 28.5 -138.501
c0 -49.333 -9.5 -95.666 -28.5 -138.999s-44.833 -81.166 -77.5 -113.499s-70.834 -57.833 -114.501 -76.5s-89.834 -28 -138.501 -28c-49.333 0 -95.666 9.33301 -138.999 28s-81.166 44.167 -113.499 76.5s-57.833 70.166 -76.5 113.499s-28 89.666 -28 138.999zM118 349
c0 -38.667 7.16699 -74.834 21.5 -108.501s34 -63 59 -88s54.167 -44.833 87.5 -59.5s69 -22 107 -22s73.667 7.33301 107 22s62.5 34.5 87.5 59.5s44.667 54.333 59 88s21.5 69.834 21.5 108.501s-7.16699 74.834 -21.5 108.501s-34 63.167 -59 88.5
s-54.167 45.333 -87.5 60s-69 22 -107 22s-73.667 -7.33301 -107 -22s-62.5 -34.667 -87.5 -60s-44.667 -54.833 -59 -88.5s-21.5 -69.834 -21.5 -108.501zM397 931l60 -90.5l60 -90.5h-59l-30.5 36l-30.5 36l-30.5 -36l-30.5 -36h-59l60 90.5z" />
    <glyph glyph-name="Otilde" unicode="&#xd5;" horiz-adv-x="786" 
d="M35 349c0 48.667 9.33301 94.834 28 138.501s44.167 81.834 76.5 114.501s70.166 58.5 113.499 77.5s89.666 28.5 138.999 28.5c48.667 0 94.834 -9.5 138.501 -28.5s81.834 -44.833 114.501 -77.5s58.5 -70.834 77.5 -114.501s28.5 -89.834 28.5 -138.501
c0 -49.333 -9.5 -95.666 -28.5 -138.999s-44.833 -81.166 -77.5 -113.499s-70.834 -57.833 -114.501 -76.5s-89.834 -28 -138.501 -28c-49.333 0 -95.666 9.33301 -138.999 28s-81.166 44.167 -113.499 76.5s-57.833 70.166 -76.5 113.499s-28 89.666 -28 138.999zM118 349
c0 -38.667 7.16699 -74.834 21.5 -108.501s34 -63 59 -88s54.167 -44.833 87.5 -59.5s69 -22 107 -22s73.667 7.33301 107 22s62.5 34.5 87.5 59.5s44.667 54.333 59 88s21.5 69.834 21.5 108.501s-7.16699 74.834 -21.5 108.501s-34 63.167 -59 88.5
s-54.167 45.333 -87.5 60s-69 22 -107 22s-73.667 -7.33301 -107 -22s-62.5 -34.667 -87.5 -60s-44.667 -54.833 -59 -88.5s-21.5 -69.834 -21.5 -108.501zM385 808c-10 10.667 -18.834 17.668 -26.501 21.001s-16.167 5 -25.5 5s-20 -3 -32 -9s-19 -18.333 -21 -37l-45 3
c0.666992 13.333 4 25.5 10 36.5s13.333 20.333 22 28s18.167 13.5 28.5 17.5s20.5 6 30.5 6c15.333 0 29.166 -3 41.499 -9s24.166 -14 35.499 -24c10 -10.667 18.833 -17.667 26.5 -21s16.167 -5 25.5 -5c4.66699 0 9.83398 0.666992 15.501 2
s11.167 3.66602 16.5 6.99902s9.83301 8 13.5 14s6.16699 13.667 7.5 23l45 -3c-0.666992 -13.333 -4 -25.5 -10 -36.5s-13.333 -20.167 -22 -27.5s-18.167 -13 -28.5 -17s-20.5 -6 -30.5 -6c-15.333 0 -29.166 3 -41.499 9s-24.166 13.667 -35.499 23z" />
    <glyph glyph-name="Odieresis" unicode="&#xd6;" horiz-adv-x="786" 
d="M35 349c0 48.667 9.33301 94.834 28 138.501s44.167 81.834 76.5 114.501s70.166 58.5 113.499 77.5s89.666 28.5 138.999 28.5c48.667 0 94.834 -9.5 138.501 -28.5s81.834 -44.833 114.501 -77.5s58.5 -70.834 77.5 -114.501s28.5 -89.834 28.5 -138.501
c0 -49.333 -9.5 -95.666 -28.5 -138.999s-44.833 -81.166 -77.5 -113.499s-70.834 -57.833 -114.501 -76.5s-89.834 -28 -138.501 -28c-49.333 0 -95.666 9.33301 -138.999 28s-81.166 44.167 -113.499 76.5s-57.833 70.166 -76.5 113.499s-28 89.666 -28 138.999zM118 349
c0 -38.667 7.16699 -74.834 21.5 -108.501s34 -63 59 -88s54.167 -44.833 87.5 -59.5s69 -22 107 -22s73.667 7.33301 107 22s62.5 34.5 87.5 59.5s44.667 54.333 59 88s21.5 69.834 21.5 108.501s-7.16699 74.834 -21.5 108.501s-34 63.167 -59 88.5
s-54.167 45.333 -87.5 60s-69 22 -107 22s-73.667 -7.33301 -107 -22s-62.5 -34.667 -87.5 -60s-44.667 -54.833 -59 -88.5s-21.5 -69.834 -21.5 -108.501zM430 810c0 15.333 5.33301 28 16 38s22.667 15 36 15c12.667 0 24.334 -5 35.001 -15s16 -22.667 16 -38
s-5.33301 -27.833 -16 -37.5s-22.334 -14.5 -35.001 -14.5c-13.333 0 -25.333 4.83301 -36 14.5s-16 22.167 -16 37.5zM264 810c0 15.333 5.33301 28 16 38s22.667 15 36 15c12.667 0 24.334 -5 35.001 -15s16 -22.667 16 -38s-5.33301 -27.833 -16 -37.5
s-22.334 -14.5 -35.001 -14.5c-13.333 0 -25.333 4.83301 -36 14.5s-16 22.167 -16 37.5z" />
    <glyph glyph-name="multiply" unicode="&#xd7;" horiz-adv-x="500" 
d="M364 0l-49.5 49l-49.5 49l-97 -97l-29 28.5l-29 28.5l98 98l-99 99l59 59l99 -99l98 98l28.5 -29l28.5 -29l-97 -97l49 -49.5l49 -49.5z" />
    <glyph glyph-name="Oslash" unicode="&#xd8;" horiz-adv-x="786" 
d="M118 349c0 -35.333 6 -68.499 18 -99.499s28.667 -58.833 50 -83.5l178.5 208l178.5 208c-22 14.667 -45.667 26.167 -71 34.5s-52 12.5 -80 12.5c-38 0 -73.5 -7.33301 -106.5 -22s-62 -34.834 -87 -60.501s-44.667 -55.5 -59 -89.5s-21.5 -70 -21.5 -108zM392 71.001
c38 0 73.667 7.33301 107 22s62.5 34.5 87.5 59.5s44.833 54.5 59.5 88.5s22 70 22 108c0 34.667 -6 67.5 -18 98.5s-28.667 58.833 -50 83.5l-178 -208l-178 -208c21.333 -14 44.333 -24.833 69 -32.5s51 -11.5 79 -11.5zM35 349.001
c0 49.333 9.33691 95.8311 28.0039 139.498s44.167 81.667 76.5 114s70.166 58 113.499 77s89.666 28.5 138.999 28.5c38 0 74.167 -5.66699 108.5 -17s66.166 -27 95.499 -47l32 37.5l32 37.5c9.33301 -8.66699 19 -17.167 29 -25.5s19.667 -16.833 29 -25.5l-32 -37
l-32 -37c30 -32 53.667 -69 71 -111s26 -86.667 26 -134c0 -49.333 -9.5 -95.666 -28.5 -138.999s-44.667 -81.166 -77 -113.499s-70.333 -57.833 -114 -76.5s-90.167 -28 -139.5 -28c-38 0 -73.833 5.33301 -107.5 16s-64.834 25.667 -93.501 45l-30 -35l-30 -35
c-9.33301 8.66699 -19 17.167 -29 25.5s-19.667 16.833 -29 25.5l29.5 34.5l29.5 34.5c-30 32 -53.667 69 -71 111s-26 87 -26 135z" />
    <glyph glyph-name="Ugrave" unicode="&#xd9;" horiz-adv-x="729" 
d="M35 700h242.001v-79h-82v-392c0 -25.333 4.16699 -47.833 12.5 -67.5s20 -36.167 35 -49.5s32.833 -23.5 53.5 -30.5s43.334 -10.5 68.001 -10.5s47.334 3.5 68.001 10.5s38.5 17.167 53.5 30.5s26.833 29.833 35.5 49.5s13 42.167 13 67.5v392h-82v79h242v-79h-77v-395
c0 -38 -6.5 -71.667 -19.5 -101s-30.833 -53.833 -53.5 -73.5s-49.334 -34.5 -80.001 -44.5s-64 -15 -100 -15s-69.333 5 -100 15s-57.334 24.833 -80.001 44.5s-40.334 44.167 -53.001 73.5s-19 63 -19 101v395h-77v79zM297.001 883l45 -66.5l45 -66.5h-59l-57.5 66.5
l-57.5 66.5h84z" />
    <glyph glyph-name="Uacute" unicode="&#xda;" horiz-adv-x="729" 
d="M35 700h242.001v-79h-82v-392c0 -25.333 4.16699 -47.833 12.5 -67.5s20 -36.167 35 -49.5s32.833 -23.5 53.5 -30.5s43.334 -10.5 68.001 -10.5s47.334 3.5 68.001 10.5s38.5 17.167 53.5 30.5s26.833 29.833 35.5 49.5s13 42.167 13 67.5v392h-82v79h242v-79h-77v-395
c0 -38 -6.5 -71.667 -19.5 -101s-30.833 -53.833 -53.5 -73.5s-49.334 -34.5 -80.001 -44.5s-64 -15 -100 -15s-69.333 5 -100 15s-57.334 24.833 -80.001 44.5s-40.334 44.167 -53.001 73.5s-19 63 -19 101v395h-77v79zM340.001 750l45 66.5l45 66.5h84l-57.5 -66.5
l-57.5 -66.5h-59z" />
    <glyph glyph-name="Ucircumflex" unicode="&#xdb;" horiz-adv-x="729" 
d="M35 700h242.001v-79h-82v-392c0 -25.333 4.16699 -47.833 12.5 -67.5s20 -36.167 35 -49.5s32.833 -23.5 53.5 -30.5s43.334 -10.5 68.001 -10.5s47.334 3.5 68.001 10.5s38.5 17.167 53.5 30.5s26.833 29.833 35.5 49.5s13 42.167 13 67.5v392h-82v79h242v-79h-77v-395
c0 -38 -6.5 -71.667 -19.5 -101s-30.833 -53.833 -53.5 -73.5s-49.334 -34.5 -80.001 -44.5s-64 -15 -100 -15s-69.333 5 -100 15s-57.334 24.833 -80.001 44.5s-40.334 44.167 -53.001 73.5s-19 63 -19 101v395h-77v79zM366.001 932l60 -90.5l60 -90.5h-59l-30.5 36
l-30.5 36l-30.5 -36l-30.5 -36h-59l60 90.5z" />
    <glyph glyph-name="Udieresis" unicode="&#xdc;" horiz-adv-x="729" 
d="M35 700h242.001v-79h-82v-392c0 -25.333 4.16699 -47.833 12.5 -67.5s20 -36.167 35 -49.5s32.833 -23.5 53.5 -30.5s43.334 -10.5 68.001 -10.5s47.334 3.5 68.001 10.5s38.5 17.167 53.5 30.5s26.833 29.833 35.5 49.5s13 42.167 13 67.5v392h-82v79h242v-79h-77v-395
c0 -38 -6.5 -71.667 -19.5 -101s-30.833 -53.833 -53.5 -73.5s-49.334 -34.5 -80.001 -44.5s-64 -15 -100 -15s-69.333 5 -100 15s-57.334 24.833 -80.001 44.5s-40.334 44.167 -53.001 73.5s-19 63 -19 101v395h-77v79zM397.001 810c0 15.333 5.33301 28 16 38
s22.667 15 36 15c12.667 0 24.334 -5 35.001 -15s16 -22.667 16 -38s-5.33301 -27.833 -16 -37.5s-22.334 -14.5 -35.001 -14.5c-13.333 0 -25.333 4.83301 -36 14.5s-16 22.167 -16 37.5zM231.001 810c0 15.333 5.33301 28 16 38s22.667 15 36 15
c12.667 0 24.334 -5 35.001 -15s16 -22.667 16 -38s-5.33301 -27.833 -16 -37.5s-22.334 -14.5 -35.001 -14.5c-13.333 0 -25.333 4.83301 -36 14.5s-16 22.167 -16 37.5z" />
    <glyph glyph-name="Yacute" unicode="&#xdd;" horiz-adv-x="789" 
d="M277 79h67v191l-104.5 175.5l-103.5 175.5h-101v79h242v-79h-40l73 -122l73 -122l11 -31h1l12 31l144 244h-39v79h242v-79h-101l-103.5 -176l-103.5 -176v-190h73v-79h-242v79zM372 750l45 66.5l45 66.5h84l-57.5 -66.5l-57.5 -66.5h-59z" />
    <glyph glyph-name="Thorn" unicode="&#xde;" horiz-adv-x="543" 
d="M35 79l70.999 0.000976562v542h-71v79h222v-79h-68v-86h82c22.667 0 47.834 -3.5 75.501 -10.5s53.5 -18.167 77.5 -33.5s44 -35 60 -59s24 -53 24 -87c0 -60.667 -18 -108.834 -54 -144.501s-88 -53.5 -156 -53.5h-109v-68h88v-79h-242v79zM188.999 227.001
l87 -0.000976562c29.333 0 53.5 3.83301 72.5 11.5s34.167 17.167 45.5 28.5s19.333 24 24 38s7 27.333 7 40c0 14.667 -3.83301 28.834 -11.5 42.501s-18 25.667 -31 36s-28.667 18.5 -47 24.5s-37.833 9 -58.5 9h-88v-230z" />
    <glyph glyph-name="germandbls" unicode="&#xdf;" horiz-adv-x="559" 
d="M35 79l60.0059 0.00390625v255h-60v81h60v8c0 36 5.83301 68.5 17.5 97.5s27.167 53.667 46.5 74s41.666 35.833 66.999 46.5s51.666 16 78.999 16c22 0 42.667 -4.16699 62 -12.5s36.333 -19.833 51 -34.5s26.167 -31.667 34.5 -51s12.5 -40 12.5 -62
c0 -21.333 -4 -41.166 -12 -59.499s-18.667 -34.166 -32 -47.499c30.667 -19.333 55.5 -44.833 74.5 -76.5s28.5 -66.834 28.5 -105.501c0 -30 -5.83301 -58.167 -17.5 -84.5s-27.5 -49.333 -47.5 -69s-43.167 -35.167 -69.5 -46.5s-54.5 -17 -84.5 -17
c-31.333 0 -60 6 -86 18l34 74c16.667 -7.33301 34 -11 52 -11c18.667 0 36.167 3.66699 52.5 11s30.666 17.166 42.999 29.499s22.166 26.666 29.499 42.999s11 33.833 11 52.5s-3.66699 36.167 -11 52.5s-17.333 30.5 -30 42.5s-27.334 21.5 -44.001 28.5
s-34.334 10.5 -53.001 10.5c0 6.66699 -0.166992 13.167 -0.5 19.5s-0.5 13.166 -0.5 20.499v41c22.667 0 41.667 6.5 57 19.5s23 31.167 23 54.5c0 20.667 -7.33301 39.167 -22 55.5s-32.667 24.166 -54 23.499c-38 -1.33301 -68.833 -15.833 -92.5 -43.5
s-35.5 -65.834 -35.5 -114.501v-418h-143v79z" />
    <glyph glyph-name="agrave" unicode="&#xe0;" 
d="M35 187c0 26 5.16699 50.998 15.5 74.998s24.5 45 42.5 63s39.333 32.333 64 43s51 16 79 16c18 0 34.667 -2.66699 50 -8s28.666 -11.166 39.999 -17.499s20.333 -12.5 27 -18.5s10 -10 10 -12c0 7.33301 0.666992 15 2 23s2 16 2 24h69v-296h76v-79h-149v20v20
c-0.666992 -2 -4 -5.66699 -10 -11s-14.5 -10.833 -25.5 -16.5s-24.167 -10.667 -39.5 -15s-32.666 -6.5 -51.999 -6.5c-28 0 -54.333 5.16699 -79 15.5s-46 24.5 -64 42.5s-32.167 38.833 -42.5 62.5s-15.5 48.834 -15.5 75.501zM119 187.998
c0 -32.667 10.833 -60.167 32.5 -82.5s49.834 -33.5 84.501 -33.5s62.834 11.167 84.501 33.5s32.5 49.833 32.5 82.5c0 33.333 -10.833 60.833 -32.5 82.5s-49.834 32.5 -84.501 32.5s-62.834 -10.833 -84.501 -32.5s-32.5 -49.167 -32.5 -82.5zM188 611.998l45 -66.5
l45 -66.5h-59l-57.5 66.5l-57.5 66.5h84z" />
    <glyph glyph-name="aacute" unicode="&#xe1;" 
d="M35 187c0 26 5.16699 50.998 15.5 74.998s24.5 45 42.5 63s39.333 32.333 64 43s51 16 79 16c18 0 34.667 -2.66699 50 -8s28.666 -11.166 39.999 -17.499s20.333 -12.5 27 -18.5s10 -10 10 -12c0 7.33301 0.666992 15 2 23s2 16 2 24h69v-296h76v-79h-149v20v20
c-0.666992 -2 -4 -5.66699 -10 -11s-14.5 -10.833 -25.5 -16.5s-24.167 -10.667 -39.5 -15s-32.666 -6.5 -51.999 -6.5c-28 0 -54.333 5.16699 -79 15.5s-46 24.5 -64 42.5s-32.167 38.833 -42.5 62.5s-15.5 48.834 -15.5 75.501zM119 187.998
c0 -32.667 10.833 -60.167 32.5 -82.5s49.834 -33.5 84.501 -33.5s62.834 11.167 84.501 33.5s32.5 49.833 32.5 82.5c0 33.333 -10.833 60.833 -32.5 82.5s-49.834 32.5 -84.501 32.5s-62.834 -10.833 -84.501 -32.5s-32.5 -49.167 -32.5 -82.5zM232 478.998l45 66.5
l45 66.5h84l-57.5 -66.5l-57.5 -66.5h-59z" />
    <glyph glyph-name="acircumflex" unicode="&#xe2;" 
d="M35 187c0 26 5.16699 50.998 15.5 74.998s24.5 45 42.5 63s39.333 32.333 64 43s51 16 79 16c18 0 34.667 -2.66699 50 -8s28.666 -11.166 39.999 -17.499s20.333 -12.5 27 -18.5s10 -10 10 -12c0 7.33301 0.666992 15 2 23s2 16 2 24h69v-296h76v-79h-149v20v20
c-0.666992 -2 -4 -5.66699 -10 -11s-14.5 -10.833 -25.5 -16.5s-24.167 -10.667 -39.5 -15s-32.666 -6.5 -51.999 -6.5c-28 0 -54.333 5.16699 -79 15.5s-46 24.5 -64 42.5s-32.167 38.833 -42.5 62.5s-15.5 48.834 -15.5 75.501zM119 187.998
c0 -32.667 10.833 -60.167 32.5 -82.5s49.834 -33.5 84.501 -33.5s62.834 11.167 84.501 33.5s32.5 49.833 32.5 82.5c0 33.333 -10.833 60.833 -32.5 82.5s-49.834 32.5 -84.501 32.5s-62.834 -10.833 -84.501 -32.5s-32.5 -49.167 -32.5 -82.5zM261 659.998l60 -90.5
l60 -90.5h-59l-30.5 36l-30.5 36l-30.5 -36l-30.5 -36h-59l60 90.5z" />
    <glyph glyph-name="atilde" unicode="&#xe3;" 
d="M35 187c0 26 5.16699 50.998 15.5 74.998s24.5 45 42.5 63s39.333 32.333 64 43s51 16 79 16c18 0 34.667 -2.66699 50 -8s28.666 -11.166 39.999 -17.499s20.333 -12.5 27 -18.5s10 -10 10 -12c0 7.33301 0.666992 15 2 23s2 16 2 24h69v-296h76v-79h-149v20v20
c-0.666992 -2 -4 -5.66699 -10 -11s-14.5 -10.833 -25.5 -16.5s-24.167 -10.667 -39.5 -15s-32.666 -6.5 -51.999 -6.5c-28 0 -54.333 5.16699 -79 15.5s-46 24.5 -64 42.5s-32.167 38.833 -42.5 62.5s-15.5 48.834 -15.5 75.501zM119 187.998
c0 -32.667 10.833 -60.167 32.5 -82.5s49.834 -33.5 84.501 -33.5s62.834 11.167 84.501 33.5s32.5 49.833 32.5 82.5c0 33.333 -10.833 60.833 -32.5 82.5s-49.834 32.5 -84.501 32.5s-62.834 -10.833 -84.501 -32.5s-32.5 -49.167 -32.5 -82.5zM229 480.998
c-10 10.667 -18.834 17.668 -26.501 21.001s-16.167 5 -25.5 5s-20 -3 -32 -9s-19 -18.333 -21 -37l-45 3c0.666992 13.333 4 25.5 10 36.5s13.333 20.333 22 28s18.167 13.5 28.5 17.5s20.5 6 30.5 6c15.333 0 29.166 -3 41.499 -9s24.166 -14 35.499 -24
c10 -10.667 18.833 -17.667 26.5 -21s16.167 -5 25.5 -5c4.66699 0 9.83398 0.666992 15.501 2s11.167 3.66602 16.5 6.99902s9.83301 8 13.5 14s6.16699 13.667 7.5 23l45 -3c-0.666992 -13.333 -4 -25.5 -10 -36.5s-13.333 -20.167 -22 -27.5s-18.167 -13 -28.5 -17
s-20.5 -6 -30.5 -6c-15.333 0 -29.166 3 -41.499 9s-24.166 13.667 -35.499 23z" />
    <glyph glyph-name="adieresis" unicode="&#xe4;" 
d="M35 187c0 26 5.16699 50.998 15.5 74.998s24.5 45 42.5 63s39.333 32.333 64 43s51 16 79 16c18 0 34.667 -2.66699 50 -8s28.666 -11.166 39.999 -17.499s20.333 -12.5 27 -18.5s10 -10 10 -12c0 7.33301 0.666992 15 2 23s2 16 2 24h69v-296h76v-79h-149v20v20
c-0.666992 -2 -4 -5.66699 -10 -11s-14.5 -10.833 -25.5 -16.5s-24.167 -10.667 -39.5 -15s-32.666 -6.5 -51.999 -6.5c-28 0 -54.333 5.16699 -79 15.5s-46 24.5 -64 42.5s-32.167 38.833 -42.5 62.5s-15.5 48.834 -15.5 75.501zM119 187.998
c0 -32.667 10.833 -60.167 32.5 -82.5s49.834 -33.5 84.501 -33.5s62.834 11.167 84.501 33.5s32.5 49.833 32.5 82.5c0 33.333 -10.833 60.833 -32.5 82.5s-49.834 32.5 -84.501 32.5s-62.834 -10.833 -84.501 -32.5s-32.5 -49.167 -32.5 -82.5zM274 519.998
c0 15.333 5.33301 28 16 38s22.667 15 36 15c12.667 0 24.334 -5 35.001 -15s16 -22.667 16 -38s-5.33301 -27.833 -16 -37.5s-22.334 -14.5 -35.001 -14.5c-13.333 0 -25.333 4.83301 -36 14.5s-16 22.167 -16 37.5zM108 519.998c0 15.333 5.33301 28 16 38
s22.667 15 36 15c12.667 0 24.334 -5 35.001 -15s16 -22.667 16 -38s-5.33301 -27.833 -16 -37.5s-22.334 -14.5 -35.001 -14.5c-13.333 0 -25.333 4.83301 -36 14.5s-16 22.167 -16 37.5z" />
    <glyph glyph-name="aring" unicode="&#xe5;" 
d="M35 187c0 26 5.16699 50.998 15.5 74.998s24.5 45 42.5 63s39.333 32.333 64 43s51 16 79 16c18 0 34.667 -2.66699 50 -8s28.666 -11.166 39.999 -17.499s20.333 -12.5 27 -18.5s10 -10 10 -12c0 7.33301 0.666992 15 2 23s2 16 2 24h69v-296h76v-79h-149v20v20
c-0.666992 -2 -4 -5.66699 -10 -11s-14.5 -10.833 -25.5 -16.5s-24.167 -10.667 -39.5 -15s-32.666 -6.5 -51.999 -6.5c-28 0 -54.333 5.16699 -79 15.5s-46 24.5 -64 42.5s-32.167 38.833 -42.5 62.5s-15.5 48.834 -15.5 75.501zM119 187.998
c0 -32.667 10.833 -60.167 32.5 -82.5s49.834 -33.5 84.501 -33.5s62.834 11.167 84.501 33.5s32.5 49.833 32.5 82.5c0 33.333 -10.833 60.833 -32.5 82.5s-49.834 32.5 -84.501 32.5s-62.834 -10.833 -84.501 -32.5s-32.5 -49.167 -32.5 -82.5zM213 538.998
c0 -9.33301 3 -17 9 -23s13.667 -9 23 -9s17.166 3 23.499 9s9.5 13.667 9.5 23s-3.16699 17.166 -9.5 23.499s-14.166 9.5 -23.499 9.5s-17 -3.16699 -23 -9.5s-9 -14.166 -9 -23.499zM158 539.998c0 12 2.33301 23.167 7 33.5s11 19.5 19 27.5s17.167 14.333 27.5 19
s21.5 7 33.5 7s23.167 -2.33301 33.5 -7s19.5 -11 27.5 -19s14.333 -17.167 19 -27.5s7 -21.5 7 -33.5s-2.33301 -23.167 -7 -33.5s-11 -19.5 -19 -27.5s-17.167 -14.333 -27.5 -19s-21.5 -7 -33.5 -7s-23.167 2.33301 -33.5 7s-19.5 11 -27.5 19s-14.333 17.167 -19 27.5
s-7 21.5 -7 33.5z" />
    <glyph glyph-name="ae" unicode="&#xe6;" horiz-adv-x="613" 
d="M352 242v-22l60 22l60 22c-9.33301 11.333 -19.833 20.5 -31.5 27.5s-24.5 10.5 -38.5 10.5c-19.333 0 -37 -3.66699 -53 -11c2 -14 3 -30.333 3 -49zM268 134h-56c-9.33301 0 -19.5 -0.333008 -30.5 -1s-21.167 -2 -30.5 -4s-17 -4.83301 -23 -8.5s-9 -8.5 -9 -14.5
c0 -14 8 -23.333 24 -28s33 -7 51 -7c7.33301 0 15.333 0.166992 24 0.5s16.667 1.5 24 3.5s13.5 5.5 18.5 10.5s7.5 12.5 7.5 22.5v26zM94 274c-7.33301 9.33301 -14.6689 18.1709 -22.002 26.5039s-14.666 17.166 -21.999 26.499c7.33301 7.33301 16.833 14.5 28.5 21.5
s24.167 13 37.5 18s27 9 41 12s27.333 4.5 40 4.5c52 0 89.333 -7.33301 112 -22c29.333 14.667 60.333 22 93 22c20.667 0 40.5 -4.16699 59.5 -12.5s36 -19.833 51 -34.5s28.167 -32.167 39.5 -52.5s20 -42.5 26 -66.5l-113 -42l-113 -42v-4
c0 -16 -1.66699 -31.667 -5 -47c8 -4 16.667 -6.83301 26 -8.5s19 -2.5 29 -2.5c30.667 0 56 10.667 76 32l51 -60c-16.667 -16.667 -35.667 -29.667 -57 -39s-44.666 -14 -69.999 -14c-35.333 0 -68 8.33301 -98 25c-24.667 -16.667 -61 -25 -109 -25
c-24 0 -45.833 1.83301 -65.5 5.5s-36.5 10.167 -50.5 19.5s-24.833 21.666 -32.5 36.999s-11.5 34.666 -11.5 57.999c0 20.667 4 38.167 12 52.5s18.833 25.666 32.5 33.999s29.167 14.333 46.5 18s35 5.5 53 5.5h89v24c0 10 -0.833008 18.5 -2.5 25.5s-5 13 -10 18
s-12.333 8.66699 -22 11s-22.167 3.5 -37.5 3.5c-8.66699 0 -17.834 -0.833008 -27.501 -2.5s-19.167 -3.83398 -28.5 -6.50098s-18.166 -5.66699 -26.499 -9s-14.833 -6.66602 -19.5 -9.99902z" />
    <glyph glyph-name="ccedilla" unicode="&#xe7;" horiz-adv-x="398" 
d="M311 97l49.9961 -63.002c-17.333 -13.333 -36.666 -23.833 -57.999 -31.5s-44 -11.5 -68 -11.5c0 -10 1.33301 -17.667 4 -23s6 -9.66602 10 -12.999s8.5 -6 13.5 -8s9.83301 -4.66699 14.5 -8c14 -10.667 23.833 -22.667 29.5 -36s8.5 -28.333 8.5 -45
c0 -22.667 -5.66699 -43.5 -17 -62.5s-28.333 -32.167 -51 -39.5c-11.333 -4 -23.666 -6 -36.999 -6c-22.667 0 -43.5 6.16699 -62.5 18.5s-32.833 31.166 -41.5 56.499l46 24c3.33301 -10.667 9.33301 -19.5 18 -26.5s19.667 -10.5 33 -10.5c16 0 28.333 5.33301 37 16
s13 24 13 40c0 13.333 -3.66699 23.833 -11 31.5s-15.166 14.5 -23.499 20.5s-16.166 12.333 -23.499 19s-11 15.667 -11 27v32c-21.333 5.33301 -41.166 14 -59.499 26s-34 26.333 -47 43s-23.167 35.334 -30.5 56.001s-11 42.334 -11 65.001c0 26.667 5.16699 52 15.5 76
s24.5 44.833 42.5 62.5s39.167 31.667 63.5 42s50.5 15.5 78.5 15.5c24.667 0 47.667 -3.83301 69 -11.5s40.666 -18.167 57.999 -31.5v-116h-75v67c-16.667 7.33301 -34 11 -52 11c-34.667 0 -62.834 -10.833 -84.501 -32.5s-32.5 -49.167 -32.5 -82.5
c0 -32.667 10.833 -60.167 32.5 -82.5s49.834 -33.5 84.501 -33.5c29.333 0 54.333 8.33301 75 25z" />
    <glyph glyph-name="egrave" unicode="&#xe8;" horiz-adv-x="450" 
d="M235 303c-34 0 -61.668 -10.167 -83.001 -30.5s-32.666 -45.833 -33.999 -76.5l93.5 34.5l93.5 34.5c-9.33301 11.333 -19.833 20.5 -31.5 27.5s-24.5 10.5 -38.5 10.5zM410.999 218l-135.501 -50l-135.5 -50c10 -14 23.167 -25.167 39.5 -33.5s34.833 -12.5 55.5 -12.5
c30.667 0 56 10.667 76 32l51 -60c-16.667 -16.667 -35.667 -29.667 -57 -39s-44.666 -14 -69.999 -14c-28 0 -54.167 5.16699 -78.5 15.5s-45.5 24.5 -63.5 42.5s-32.167 38.833 -42.5 62.5s-15.5 49.167 -15.5 76.5c0 26.667 5.16699 52 15.5 76s24.5 44.833 42.5 62.5
s39.167 31.667 63.5 42s50.5 15.5 78.5 15.5c20.667 0 40.5 -4.16699 59.5 -12.5s36 -19.833 51 -34.5s28.167 -32.167 39.5 -52.5s20 -42.5 26 -66.5zM163.998 612l45 -66.5l45 -66.5h-59l-57.5 66.5l-57.5 66.5h84z" />
    <glyph glyph-name="eacute" unicode="&#xe9;" horiz-adv-x="450" 
d="M235 303c-34 0 -61.668 -10.167 -83.001 -30.5s-32.666 -45.833 -33.999 -76.5l93.5 34.5l93.5 34.5c-9.33301 11.333 -19.833 20.5 -31.5 27.5s-24.5 10.5 -38.5 10.5zM410.999 218l-135.501 -50l-135.5 -50c10 -14 23.167 -25.167 39.5 -33.5s34.833 -12.5 55.5 -12.5
c30.667 0 56 10.667 76 32l51 -60c-16.667 -16.667 -35.667 -29.667 -57 -39s-44.666 -14 -69.999 -14c-28 0 -54.167 5.16699 -78.5 15.5s-45.5 24.5 -63.5 42.5s-32.167 38.833 -42.5 62.5s-15.5 49.167 -15.5 76.5c0 26.667 5.16699 52 15.5 76s24.5 44.833 42.5 62.5
s39.167 31.667 63.5 42s50.5 15.5 78.5 15.5c20.667 0 40.5 -4.16699 59.5 -12.5s36 -19.833 51 -34.5s28.167 -32.167 39.5 -52.5s20 -42.5 26 -66.5zM218.998 479l45 66.5l45 66.5h84l-57.5 -66.5l-57.5 -66.5h-59z" />
    <glyph glyph-name="ecircumflex" unicode="&#xea;" horiz-adv-x="450" 
d="M235 303c-34 0 -61.668 -10.167 -83.001 -30.5s-32.666 -45.833 -33.999 -76.5l93.5 34.5l93.5 34.5c-9.33301 11.333 -19.833 20.5 -31.5 27.5s-24.5 10.5 -38.5 10.5zM410.999 218l-135.501 -50l-135.5 -50c10 -14 23.167 -25.167 39.5 -33.5s34.833 -12.5 55.5 -12.5
c30.667 0 56 10.667 76 32l51 -60c-16.667 -16.667 -35.667 -29.667 -57 -39s-44.666 -14 -69.999 -14c-28 0 -54.167 5.16699 -78.5 15.5s-45.5 24.5 -63.5 42.5s-32.167 38.833 -42.5 62.5s-15.5 49.167 -15.5 76.5c0 26.667 5.16699 52 15.5 76s24.5 44.833 42.5 62.5
s39.167 31.667 63.5 42s50.5 15.5 78.5 15.5c20.667 0 40.5 -4.16699 59.5 -12.5s36 -19.833 51 -34.5s28.167 -32.167 39.5 -52.5s20 -42.5 26 -66.5zM229.998 660l60 -90.5l60 -90.5h-59l-30.5 36l-30.5 36l-30.5 -36l-30.5 -36h-59l60 90.5z" />
    <glyph glyph-name="edieresis" unicode="&#xeb;" horiz-adv-x="450" 
d="M235 303c-34 0 -61.668 -10.167 -83.001 -30.5s-32.666 -45.833 -33.999 -76.5l93.5 34.5l93.5 34.5c-9.33301 11.333 -19.833 20.5 -31.5 27.5s-24.5 10.5 -38.5 10.5zM410.999 218l-135.501 -50l-135.5 -50c10 -14 23.167 -25.167 39.5 -33.5s34.833 -12.5 55.5 -12.5
c30.667 0 56 10.667 76 32l51 -60c-16.667 -16.667 -35.667 -29.667 -57 -39s-44.666 -14 -69.999 -14c-28 0 -54.167 5.16699 -78.5 15.5s-45.5 24.5 -63.5 42.5s-32.167 38.833 -42.5 62.5s-15.5 49.167 -15.5 76.5c0 26.667 5.16699 52 15.5 76s24.5 44.833 42.5 62.5
s39.167 31.667 63.5 42s50.5 15.5 78.5 15.5c20.667 0 40.5 -4.16699 59.5 -12.5s36 -19.833 51 -34.5s28.167 -32.167 39.5 -52.5s20 -42.5 26 -66.5zM260.998 520c0 15.333 5.33301 28 16 38s22.667 15 36 15c12.667 0 24.334 -5 35.001 -15s16 -22.667 16 -38
s-5.33301 -27.833 -16 -37.5s-22.334 -14.5 -35.001 -14.5c-13.333 0 -25.333 4.83301 -36 14.5s-16 22.167 -16 37.5zM94.998 520c0 15.333 5.33301 28 16 38s22.667 15 36 15c12.667 0 24.334 -5 35.001 -15s16 -22.667 16 -38s-5.33301 -27.833 -16 -37.5
s-22.334 -14.5 -35.001 -14.5c-13.333 0 -25.333 4.83301 -36 14.5s-16 22.167 -16 37.5z" />
    <glyph glyph-name="igrave" unicode="&#xec;" horiz-adv-x="292" 
d="M35 79h70v217h-70v79h153v-296h69v-79h-222v79zM84 612l45 -66.5l45 -66.5h-59l-57.5 66.5l-57.5 66.5h84z" />
    <glyph glyph-name="iacute" unicode="&#xed;" horiz-adv-x="292" 
d="M35 79h70v217h-70v79h153v-296h69v-79h-222v79zM118 479l45 66.5l45 66.5h84l-57.5 -66.5l-57.5 -66.5h-59z" />
    <glyph glyph-name="icircumflex" unicode="&#xee;" horiz-adv-x="292" 
d="M35 79h70v217h-70v79h153v-296h69v-79h-222v79zM147 660l60 -90.5l60 -90.5h-59l-30.5 36l-30.5 36l-30.5 -36l-30.5 -36h-59l60 90.5z" />
    <glyph glyph-name="idieresis" unicode="&#xef;" horiz-adv-x="292" 
d="M35 79h70v217h-70v79h153v-296h69v-79h-222v79zM179 520c0 15.333 5.33301 28 16 38s22.667 15 36 15c12.667 0 24.334 -5 35.001 -15s16 -22.667 16 -38s-5.33301 -27.833 -16 -37.5s-22.334 -14.5 -35.001 -14.5c-13.333 0 -25.333 4.83301 -36 14.5
s-16 22.167 -16 37.5zM13 520c0 15.333 5.33301 28 16 38s22.667 15 36 15c12.667 0 24.334 -5 35.001 -15s16 -22.667 16 -38s-5.33301 -27.833 -16 -37.5s-22.334 -14.5 -35.001 -14.5c-13.333 0 -25.333 4.83301 -36 14.5s-16 22.167 -16 37.5z" />
    <glyph glyph-name="eth" unicode="&#xf0;" horiz-adv-x="471" 
d="M119 188c0 -16.667 3.16797 -31.999 9.50098 -45.999s14.666 -26 24.999 -36s22.833 -17.833 37.5 -23.5s30.667 -8.16699 48 -7.5s33 4.16699 47 10.5s26 14.833 36 25.5s17.667 23.167 23 37.5s8 29.5 8 45.5c-0.666992 16.667 -4.16699 32 -10.5 46
s-14.666 26 -24.999 36s-22.833 17.667 -37.5 23s-30.334 7.66602 -47.001 6.99902c-35.333 -1.33301 -63.5 -13 -84.5 -35s-30.833 -49.667 -29.5 -83zM114.001 531.001l28 30.0039l28 30c-29.333 34 -60 64.667 -92 92l30.5 27.5l30.5 27.5c30 -23.333 60 -51 90 -83
c7.33301 8.66699 14.833 17 22.5 25s15.167 16.333 22.5 25c9.33301 -8.66699 19 -17.167 29 -25.5s19.667 -16.833 29 -25.5l-27 -29.5l-27 -29.5c20.667 -27.333 40.5 -57.333 59.5 -90s35.833 -66.334 50.5 -101.001s26.334 -69.667 35.001 -105s13 -69.333 13 -102
c0.666992 -27.333 -3.83301 -53 -13.5 -77s-23.167 -45.167 -40.5 -63.5s-38 -33.166 -62 -44.499s-50 -17.333 -78 -18s-54.333 3.83301 -79 13.5s-46.334 23.167 -65.001 40.5s-33.667 37.666 -45 60.999s-17.333 48.666 -18 75.999
c-0.666992 26.667 3.83301 52.167 13.5 76.5s23.334 45.5 41.001 63.5s38.5 32.5 62.5 43.5s50 16.833 78 17.5c21.333 0.666992 42.666 -2 63.999 -8c-8.66699 26.667 -19.5 52.5 -32.5 77.5s-27.5 49.167 -43.5 72.5c-7.33301 -8.66699 -15 -17 -23 -25
s-15.667 -16.333 -23 -25c-9.33301 9.33301 -19 18.166 -29 26.499s-19.667 17.166 -29 26.499z" />
    <glyph glyph-name="ntilde" unicode="&#xf1;" horiz-adv-x="580" 
d="M323 79l77 0.000976562v155c-1.33301 18 -7.83301 33.5 -19.5 46.5s-30.167 20.167 -55.5 21.5c-17.333 0 -33.833 -3 -49.5 -9s-29.5 -14.333 -41.5 -25s-21.667 -23.334 -29 -38.001s-11 -30.667 -11 -48v-103h63v-79h-222v79h76v217h-66v79h139v-9l3.5 -43.5
l3.5 -43.5c13.333 32 34.833 57.5 64.5 76.5s62.5 28.5 98.5 28.5c39.333 0 70.333 -10.333 93 -31s34.667 -47.667 36 -81v-193h62v-79h-222v79zM277 476.001c-10 10.667 -18.834 17.668 -26.501 21.001s-16.167 5 -25.5 5s-20 -3 -32 -9s-19 -18.333 -21 -37l-45 3
c0.666992 13.333 4 25.5 10 36.5s13.333 20.333 22 28s18.167 13.5 28.5 17.5s20.5 6 30.5 6c15.333 0 29.166 -3 41.499 -9s24.166 -14 35.499 -24c10 -10.667 18.833 -17.667 26.5 -21s16.167 -5 25.5 -5c4.66699 0 9.83398 0.666992 15.501 2
s11.167 3.66602 16.5 6.99902s9.83301 8 13.5 14s6.16699 13.667 7.5 23l45 -3c-0.666992 -13.333 -4 -25.5 -10 -36.5s-13.333 -20.167 -22 -27.5s-18.167 -13 -28.5 -17s-20.5 -6 -30.5 -6c-15.333 0 -29.166 3 -41.499 9s-24.166 13.667 -35.499 23z" />
    <glyph glyph-name="ograve" unicode="&#xf2;" horiz-adv-x="471" 
d="M35 188c0 26.667 5.16699 52 15.5 76s24.5 44.833 42.5 62.5s39.167 31.667 63.5 42s50.5 15.5 78.5 15.5s54.333 -5.16699 79 -15.5s46 -24.333 64 -42s32.167 -38.5 42.5 -62.5s15.5 -49.333 15.5 -76c0 -27.333 -5.16699 -52.833 -15.5 -76.5s-24.5 -44.5 -42.5 -62.5
s-39.333 -32.167 -64 -42.5s-51 -15.5 -79 -15.5s-54.167 5.16699 -78.5 15.5s-45.5 24.5 -63.5 42.5s-32.167 38.833 -42.5 62.5s-15.5 49.167 -15.5 76.5zM118 187c0 -16 3 -31 9 -45s14.167 -26.167 24.5 -36.5s22.5 -18.5 36.5 -24.5s29 -9 45 -9s31 3 45 9
s26.333 14.167 37 24.5s19 22.5 25 36.5s9 29 9 45s-3 31 -9 45s-14.333 26.333 -25 37s-23 19 -37 25s-29 9 -45 9s-31 -3 -45 -9s-26.167 -14.333 -36.5 -25s-18.5 -23 -24.5 -37s-9 -29 -9 -45zM162 612l45 -66.5l45 -66.5h-59l-57.5 66.5l-57.5 66.5h84z" />
    <glyph glyph-name="oacute" unicode="&#xf3;" horiz-adv-x="471" 
d="M35 188c0 26.667 5.16699 52 15.5 76s24.5 44.833 42.5 62.5s39.167 31.667 63.5 42s50.5 15.5 78.5 15.5s54.333 -5.16699 79 -15.5s46 -24.333 64 -42s32.167 -38.5 42.5 -62.5s15.5 -49.333 15.5 -76c0 -27.333 -5.16699 -52.833 -15.5 -76.5s-24.5 -44.5 -42.5 -62.5
s-39.333 -32.167 -64 -42.5s-51 -15.5 -79 -15.5s-54.167 5.16699 -78.5 15.5s-45.5 24.5 -63.5 42.5s-32.167 38.833 -42.5 62.5s-15.5 49.167 -15.5 76.5zM118 187c0 -16 3 -31 9 -45s14.167 -26.167 24.5 -36.5s22.5 -18.5 36.5 -24.5s29 -9 45 -9s31 3 45 9
s26.333 14.167 37 24.5s19 22.5 25 36.5s9 29 9 45s-3 31 -9 45s-14.333 26.333 -25 37s-23 19 -37 25s-29 9 -45 9s-31 -3 -45 -9s-26.167 -14.333 -36.5 -25s-18.5 -23 -24.5 -37s-9 -29 -9 -45zM231 479l45 66.5l45 66.5h84l-57.5 -66.5l-57.5 -66.5h-59z" />
    <glyph glyph-name="ocircumflex" unicode="&#xf4;" horiz-adv-x="471" 
d="M35 188c0 26.667 5.16699 52 15.5 76s24.5 44.833 42.5 62.5s39.167 31.667 63.5 42s50.5 15.5 78.5 15.5s54.333 -5.16699 79 -15.5s46 -24.333 64 -42s32.167 -38.5 42.5 -62.5s15.5 -49.333 15.5 -76c0 -27.333 -5.16699 -52.833 -15.5 -76.5s-24.5 -44.5 -42.5 -62.5
s-39.333 -32.167 -64 -42.5s-51 -15.5 -79 -15.5s-54.167 5.16699 -78.5 15.5s-45.5 24.5 -63.5 42.5s-32.167 38.833 -42.5 62.5s-15.5 49.167 -15.5 76.5zM118 187c0 -16 3 -31 9 -45s14.167 -26.167 24.5 -36.5s22.5 -18.5 36.5 -24.5s29 -9 45 -9s31 3 45 9
s26.333 14.167 37 24.5s19 22.5 25 36.5s9 29 9 45s-3 31 -9 45s-14.333 26.333 -25 37s-23 19 -37 25s-29 9 -45 9s-31 -3 -45 -9s-26.167 -14.333 -36.5 -25s-18.5 -23 -24.5 -37s-9 -29 -9 -45zM235 660l60 -90.5l60 -90.5h-59l-30.5 36l-30.5 36l-30.5 -36l-30.5 -36
h-59l60 90.5z" />
    <glyph glyph-name="otilde" unicode="&#xf5;" horiz-adv-x="471" 
d="M35 188c0 26.667 5.16699 52 15.5 76s24.5 44.833 42.5 62.5s39.167 31.667 63.5 42s50.5 15.5 78.5 15.5s54.333 -5.16699 79 -15.5s46 -24.333 64 -42s32.167 -38.5 42.5 -62.5s15.5 -49.333 15.5 -76c0 -27.333 -5.16699 -52.833 -15.5 -76.5s-24.5 -44.5 -42.5 -62.5
s-39.333 -32.167 -64 -42.5s-51 -15.5 -79 -15.5s-54.167 5.16699 -78.5 15.5s-45.5 24.5 -63.5 42.5s-32.167 38.833 -42.5 62.5s-15.5 49.167 -15.5 76.5zM118 187c0 -16 3 -31 9 -45s14.167 -26.167 24.5 -36.5s22.5 -18.5 36.5 -24.5s29 -9 45 -9s31 3 45 9
s26.333 14.167 37 24.5s19 22.5 25 36.5s9 29 9 45s-3 31 -9 45s-14.333 26.333 -25 37s-23 19 -37 25s-29 9 -45 9s-31 -3 -45 -9s-26.167 -14.333 -36.5 -25s-18.5 -23 -24.5 -37s-9 -29 -9 -45zM232 481c-10 10.667 -18.834 17.668 -26.501 21.001s-16.167 5 -25.5 5
s-20 -3 -32 -9s-19 -18.333 -21 -37l-45 3c0.666992 13.333 4 25.5 10 36.5s13.333 20.333 22 28s18.167 13.5 28.5 17.5s20.5 6 30.5 6c15.333 0 29.166 -3 41.499 -9s24.166 -14 35.499 -24c10 -10.667 18.833 -17.667 26.5 -21s16.167 -5 25.5 -5
c4.66699 0 9.83398 0.666992 15.501 2s11.167 3.66602 16.5 6.99902s9.83301 8 13.5 14s6.16699 13.667 7.5 23l45 -3c-0.666992 -13.333 -4 -25.5 -10 -36.5s-13.333 -20.167 -22 -27.5s-18.167 -13 -28.5 -17s-20.5 -6 -30.5 -6c-15.333 0 -29.166 3 -41.499 9
s-24.166 13.667 -35.499 23z" />
    <glyph glyph-name="odieresis" unicode="&#xf6;" horiz-adv-x="471" 
d="M35 188c0 26.667 5.16699 52 15.5 76s24.5 44.833 42.5 62.5s39.167 31.667 63.5 42s50.5 15.5 78.5 15.5s54.333 -5.16699 79 -15.5s46 -24.333 64 -42s32.167 -38.5 42.5 -62.5s15.5 -49.333 15.5 -76c0 -27.333 -5.16699 -52.833 -15.5 -76.5s-24.5 -44.5 -42.5 -62.5
s-39.333 -32.167 -64 -42.5s-51 -15.5 -79 -15.5s-54.167 5.16699 -78.5 15.5s-45.5 24.5 -63.5 42.5s-32.167 38.833 -42.5 62.5s-15.5 49.167 -15.5 76.5zM118 187c0 -16 3 -31 9 -45s14.167 -26.167 24.5 -36.5s22.5 -18.5 36.5 -24.5s29 -9 45 -9s31 3 45 9
s26.333 14.167 37 24.5s19 22.5 25 36.5s9 29 9 45s-3 31 -9 45s-14.333 26.333 -25 37s-23 19 -37 25s-29 9 -45 9s-31 -3 -45 -9s-26.167 -14.333 -36.5 -25s-18.5 -23 -24.5 -37s-9 -29 -9 -45zM267 520c0 15.333 5.33301 28 16 38s22.667 15 36 15
c12.667 0 24.334 -5 35.001 -15s16 -22.667 16 -38s-5.33301 -27.833 -16 -37.5s-22.334 -14.5 -35.001 -14.5c-13.333 0 -25.333 4.83301 -36 14.5s-16 22.167 -16 37.5zM101 520c0 15.333 5.33301 28 16 38s22.667 15 36 15c12.667 0 24.334 -5 35.001 -15
s16 -22.667 16 -38s-5.33301 -27.833 -16 -37.5s-22.334 -14.5 -35.001 -14.5c-13.333 0 -25.333 4.83301 -36 14.5s-16 22.167 -16 37.5z" />
    <glyph glyph-name="divide" unicode="&#xf7;" horiz-adv-x="501" 
d="M428 206h-360v81h360v-81zM199 373c0 15.333 5.33301 28 16 38s22.667 15 36 15c12.667 0 24.334 -5 35.001 -15s16 -22.667 16 -38s-5.33301 -27.833 -16 -37.5s-22.334 -14.5 -35.001 -14.5c-13.333 0 -25.333 4.83301 -36 14.5s-16 22.167 -16 37.5zM199 123
c0 15.333 5.33301 28 16 38s22.667 15 36 15c12.667 0 24.334 -5 35.001 -15s16 -22.667 16 -38s-5.33301 -27.833 -16 -37.5s-22.334 -14.5 -35.001 -14.5c-13.333 0 -25.333 4.83301 -36 14.5s-16 22.167 -16 37.5z" />
    <glyph glyph-name="oslash" unicode="&#xf8;" horiz-adv-x="471" 
d="M118 188c0 -23.333 5.66797 -44.333 17.001 -63l73 85l73 85c-14.667 5.33301 -30 8 -46 8c-34.667 0 -62.834 -10.833 -84.501 -32.5s-32.5 -49.167 -32.5 -82.5zM235.001 72c34.667 0 62.833 11.1689 84.5 33.502s32.5 49.833 32.5 82.5c0 13.333 -2 26.166 -6 38.499
s-9.66699 23.166 -17 32.499l-150 -174c17.333 -8.66699 36 -13 56 -13zM35 188.002c0 26.667 5.16699 52.0029 15.5 76.0029s24.5 44.833 42.5 62.5s39.167 31.667 63.5 42s50.5 15.5 78.5 15.5c37.333 0 70.666 -8.66699 99.999 -26c6 7.33301 12.167 14.5 18.5 21.5
s12.5 14.167 18.5 21.5l22.5 -20l22.5 -20c-5.33301 -6.66699 -11 -13.334 -17 -20.001s-11.667 -13.334 -17 -20.001c16.667 -17.333 29.667 -37.5 39 -60.5s14 -47.167 14 -72.5c0 -27.333 -5.16699 -52.833 -15.5 -76.5s-24.5 -44.5 -42.5 -62.5
s-39.333 -32.167 -64 -42.5s-51 -15.5 -79 -15.5c-20.667 0 -40.167 2.83301 -58.5 8.5s-35.166 13.5 -50.499 23.5c-7.33301 -8 -14.333 -16.167 -21 -24.5s-13.667 -16.5 -21 -24.5c-7.33301 6.66699 -15 13 -23 19s-15.667 12.333 -23 19l21.5 25l21.5 25
c-14.667 17.333 -26 36.666 -34 57.999s-12 44 -12 68z" />
    <glyph glyph-name="ugrave" unicode="&#xf9;" horiz-adv-x="570" 
d="M35 375l149 -0.000976562v-234c1.33301 -18 7.83301 -33.5 19.5 -46.5s30.167 -20.167 55.5 -21.5c17.333 0 33.833 3 49.5 9s29.5 14.333 41.5 25s21.667 23.334 29 38.001s11 30.667 11 48v103h-66v79h149v-305h62v-70h-145v51l3 45
c-13.333 -32 -34.833 -57.5 -64.5 -76.5s-62.5 -28.5 -98.5 -28.5c-39.333 0 -70.333 10.333 -93 31s-34.667 47.667 -36 81v193h-66v79zM210 611.999l45 -66.5l45 -66.5h-59l-57.5 66.5l-57.5 66.5h84z" />
    <glyph glyph-name="uacute" unicode="&#xfa;" horiz-adv-x="570" 
d="M35 375l149 -0.000976562v-234c1.33301 -18 7.83301 -33.5 19.5 -46.5s30.167 -20.167 55.5 -21.5c17.333 0 33.833 3 49.5 9s29.5 14.333 41.5 25s21.667 23.334 29 38.001s11 30.667 11 48v103h-66v79h149v-305h62v-70h-145v51l3 45
c-13.333 -32 -34.833 -57.5 -64.5 -76.5s-62.5 -28.5 -98.5 -28.5c-39.333 0 -70.333 10.333 -93 31s-34.667 47.667 -36 81v193h-66v79zM231 478.999l45 66.5l45 66.5h84l-57.5 -66.5l-57.5 -66.5h-59z" />
    <glyph glyph-name="ucircumflex" unicode="&#xfb;" horiz-adv-x="570" 
d="M35 375l149 -0.000976562v-234c1.33301 -18 7.83301 -33.5 19.5 -46.5s30.167 -20.167 55.5 -21.5c17.333 0 33.833 3 49.5 9s29.5 14.333 41.5 25s21.667 23.334 29 38.001s11 30.667 11 48v103h-66v79h149v-305h62v-70h-145v51l3 45
c-13.333 -32 -34.833 -57.5 -64.5 -76.5s-62.5 -28.5 -98.5 -28.5c-39.333 0 -70.333 10.333 -93 31s-34.667 47.667 -36 81v193h-66v79zM266 659.999l60 -90.5l60 -90.5h-59l-30.5 36l-30.5 36l-30.5 -36l-30.5 -36h-59l60 90.5z" />
    <glyph glyph-name="udieresis" unicode="&#xfc;" horiz-adv-x="570" 
d="M35 375l149 -0.000976562v-234c1.33301 -18 7.83301 -33.5 19.5 -46.5s30.167 -20.167 55.5 -21.5c17.333 0 33.833 3 49.5 9s29.5 14.333 41.5 25s21.667 23.334 29 38.001s11 30.667 11 48v103h-66v79h149v-305h62v-70h-145v51l3 45
c-13.333 -32 -34.833 -57.5 -64.5 -76.5s-62.5 -28.5 -98.5 -28.5c-39.333 0 -70.333 10.333 -93 31s-34.667 47.667 -36 81v193h-66v79zM294 519.999c0 15.333 5.33301 28 16 38s22.667 15 36 15c12.667 0 24.334 -5 35.001 -15s16 -22.667 16 -38
s-5.33301 -27.833 -16 -37.5s-22.334 -14.5 -35.001 -14.5c-13.333 0 -25.333 4.83301 -36 14.5s-16 22.167 -16 37.5zM128 519.999c0 15.333 5.33301 28 16 38s22.667 15 36 15c12.667 0 24.334 -5 35.001 -15s16 -22.667 16 -38s-5.33301 -27.833 -16 -37.5
s-22.334 -14.5 -35.001 -14.5c-13.333 0 -25.333 4.83301 -36 14.5s-16 22.167 -16 37.5z" />
    <glyph glyph-name="yacute" unicode="&#xfd;" horiz-adv-x="617" 
d="M92 -171h90l42.5 86l43.5 85l-74.5 148l-74.5 148h-84v79h222v-79h-53l58 -110.5c19.333 -37 35.333 -74.167 48 -111.5c12.667 37.333 28.5 74.5 47.5 111.5l57.5 110.5h-62v79h229v-79h-82l-117.5 -233.5l-117.5 -233.5h49v-79h-222v79zM298 479l45 66.5l45 66.5h84
l-57.5 -66.5l-57.5 -66.5h-59z" />
    <glyph glyph-name="thorn" unicode="&#xfe;" horiz-adv-x="510" 
d="M16 -171l77.002 0.000976562v842h-77v79h222v-79h-62v-311c-1.33301 -5.33301 -3 -10.5 -5 -15.5s-3.66699 -10.167 -5 -15.5c0.666992 2 4.5 6 11.5 12s16.167 12 27.5 18s24.5 11.333 39.5 16s31.167 7 48.5 7c28 0 54.333 -5.16699 79 -15.5s46 -24.5 64 -42.5
s32.167 -38.833 42.5 -62.5s15.5 -48.5 15.5 -74.5c0 -26.667 -5.16699 -51.834 -15.5 -75.501s-24.5 -44.5 -42.5 -62.5s-39.333 -32.167 -64 -42.5s-51 -15.5 -79 -15.5c-18.667 0 -35.334 2 -50.001 6s-27.334 8.5 -38.001 13.5s-19.167 10.167 -25.5 15.5
s-10.5 9.33301 -12.5 12c1.33301 -3.33301 2.83301 -6.5 4.5 -9.5s3.16699 -6.16699 4.5 -9.5v-190h82v-79h-242v79zM410.002 188.001c0 33.333 -10.833 60.833 -32.5 82.5s-49.834 32.5 -84.501 32.5s-62.834 -10.833 -84.501 -32.5s-32.5 -49.167 -32.5 -82.5
c0 -32.667 10.833 -60.167 32.5 -82.5s49.834 -33.5 84.501 -33.5s62.834 11.167 84.501 33.5s32.5 49.833 32.5 82.5z" />
    <glyph glyph-name="ydieresis" unicode="&#xff;" horiz-adv-x="617" 
d="M92 -171h90l42.5 86l43.5 85l-74.5 148l-74.5 148h-84v79h222v-79h-53l58 -110.5c19.333 -37 35.333 -74.167 48 -111.5c12.667 37.333 28.5 74.5 47.5 111.5l57.5 110.5h-62v79h229v-79h-82l-117.5 -233.5l-117.5 -233.5h49v-79h-222v79zM343 520
c0 15.333 5.33301 28 16 38s22.667 15 36 15c12.667 0 24.334 -5 35.001 -15s16 -22.667 16 -38s-5.33301 -27.833 -16 -37.5s-22.334 -14.5 -35.001 -14.5c-13.333 0 -25.333 4.83301 -36 14.5s-16 22.167 -16 37.5zM177 520c0 15.333 5.33301 28 16 38s22.667 15 36 15
c12.667 0 24.334 -5 35.001 -15s16 -22.667 16 -38s-5.33301 -27.833 -16 -37.5s-22.334 -14.5 -35.001 -14.5c-13.333 0 -25.333 4.83301 -36 14.5s-16 22.167 -16 37.5z" />
    <glyph glyph-name="dotlessi" unicode="&#x131;" horiz-adv-x="292" 
d="M35 79h70v217h-70v79h153v-296h69v-79h-222v79z" />
    <glyph glyph-name="ring" unicode="&#x2da;" horiz-adv-x="250" 
d="M93 539c0 -9.33301 3 -17 9 -23s13.667 -9 23 -9s17.166 3 23.499 9s9.5 13.667 9.5 23s-3.16699 17.166 -9.5 23.499s-14.166 9.5 -23.499 9.5s-17 -3.16699 -23 -9.5s-9 -14.166 -9 -23.499zM38 540c0 12 2.33301 23.167 7 33.5s11 19.5 19 27.5s17.167 14.333 27.5 19
s21.5 7 33.5 7s23.167 -2.33301 33.5 -7s19.5 -11 27.5 -19s14.333 -17.167 19 -27.5s7 -21.5 7 -33.5s-2.33301 -23.167 -7 -33.5s-11 -19.5 -19 -27.5s-17.167 -14.333 -27.5 -19s-21.5 -7 -33.5 -7s-23.167 2.33301 -33.5 7s-19.5 11 -27.5 19s-14.333 17.167 -19 27.5
s-7 21.5 -7 33.5z" />
    <glyph glyph-name="endash" unicode="&#x2013;" horiz-adv-x="509" 
d="M100 174v81h301v-81h-301z" />
    <glyph glyph-name="emdash" unicode="&#x2014;" horiz-adv-x="700" 
d="M99 174v81h502v-81h-502z" />
    <glyph glyph-name="quoteleft" unicode="&#x2018;" horiz-adv-x="164" 
d="M116 590c-7.33301 -4 -14.1689 -8 -20.502 -12s-13.166 -8 -20.499 -12c-18.667 18.667 -32 40.5 -40 65.5s-9.33301 51.5 -4 79.5c8.66699 -1.33301 17.334 -2.5 26.001 -3.5s17.334 -2.16699 26.001 -3.5c-4.66699 -23.333 -3.83398 -44.833 2.49902 -64.5
s16.5 -36.167 30.5 -49.5z" />
    <glyph glyph-name="quoteright" unicode="&#x2019;" horiz-adv-x="164" 
d="M76 566c-7.33301 4 -14.1689 8 -20.502 12s-13.166 8 -20.499 12c14 13.333 24.167 29.833 30.5 49.5s7.16602 41.167 2.49902 64.5c8.66699 1.33301 17.334 2.5 26.001 3.5s17.334 2.16699 26.001 3.5c5.33301 -28 4 -54.5 -4 -79.5s-21.333 -46.833 -40 -65.5z" />
    <glyph glyph-name="quotesinglbase" unicode="&#x201a;" horiz-adv-x="146" 
d="M60 -53c-7.33301 4 -14.1689 8 -20.502 12s-13.166 8 -20.499 12c14 13.333 24.167 29.833 30.5 49.5s7.16602 41.167 2.49902 64.5c8.66699 1.33301 17.334 2.5 26.001 3.5s17.334 2.16699 26.001 3.5c5.33301 -28 4 -54.5 -4 -79.5s-21.333 -46.833 -40 -65.5z" />
    <glyph glyph-name="quotedblleft" unicode="&#x201c;" horiz-adv-x="249" 
d="M220 590c-7.33301 -4 -14.1689 -8 -20.502 -12s-13.166 -8 -20.499 -12c-18.667 18.667 -32 40.5 -40 65.5s-9.33301 51.5 -4 79.5c8.66699 -1.33301 17.334 -2.5 26.001 -3.5s17.334 -2.16699 26.001 -3.5c-4.66699 -23.333 -3.83398 -44.833 2.49902 -64.5
s16.5 -36.167 30.5 -49.5zM115.997 590c-7.33301 -4 -14.1689 -8 -20.502 -12s-13.166 -8 -20.499 -12c-18.667 18.667 -32 40.5 -40 65.5s-9.33301 51.5 -4 79.5c8.66699 -1.33301 17.334 -2.5 26.001 -3.5s17.334 -2.16699 26.001 -3.5
c-4.66699 -23.333 -3.83398 -44.833 2.49902 -64.5s16.5 -36.167 30.5 -49.5z" />
    <glyph glyph-name="quotedblright" unicode="&#x201d;" horiz-adv-x="248" 
d="M52 566c-7.33301 4 -14.1689 8 -20.502 12s-13.166 8 -20.499 12c14 13.333 24.167 29.833 30.5 49.5s7.16602 41.167 2.49902 64.5c8.66699 1.33301 17.334 2.5 26.001 3.5s17.334 2.16699 26.001 3.5c5.33301 -28 4 -54.5 -4 -79.5s-21.333 -46.833 -40 -65.5z
M155.997 566c-7.33301 4 -14.1689 8 -20.502 12s-13.166 8 -20.499 12c14 13.333 24.167 29.833 30.5 49.5s7.16602 41.167 2.49902 64.5c8.66699 1.33301 17.334 2.5 26.001 3.5s17.334 2.16699 26.001 3.5c5.33301 -28 4 -54.5 -4 -79.5s-21.333 -46.833 -40 -65.5z" />
    <glyph glyph-name="quotedblbase" unicode="&#x201e;" horiz-adv-x="341" 
d="M60 -53c-7.33301 4 -14.1689 8 -20.502 12s-13.166 8 -20.499 12c14 13.333 24.167 29.833 30.5 49.5s7.16602 41.167 2.49902 64.5c8.66699 1.33301 17.334 2.5 26.001 3.5s17.334 2.16699 26.001 3.5c5.33301 -28 4 -54.5 -4 -79.5s-21.333 -46.833 -40 -65.5z
M163.997 -53c-7.33301 4 -14.1689 8 -20.502 12s-13.166 8 -20.499 12c14 13.333 24.167 29.833 30.5 49.5s7.16602 41.167 2.49902 64.5c8.66699 1.33301 17.334 2.5 26.001 3.5s17.334 2.16699 26.001 3.5c5.33301 -28 4 -54.5 -4 -79.5s-21.333 -46.833 -40 -65.5z" />
    <glyph glyph-name="bullet" unicode="&#x2022;" horiz-adv-x="479" 
d="M113 300c0 18 3.33301 34.667 10 50s15.667 28.833 27 40.5s24.666 20.834 39.999 27.501s31.666 10 48.999 10c18 0 34.667 -3.33301 50 -10s28.833 -15.834 40.5 -27.501s20.834 -25.167 27.501 -40.5s10 -32 10 -50s-3.33301 -34.667 -10 -50
s-15.834 -28.666 -27.501 -39.999s-25.167 -20.166 -40.5 -26.499s-32 -9.5 -50 -9.5c-17.333 0 -33.666 3.16699 -48.999 9.5s-28.666 15.166 -39.999 26.499s-20.333 24.666 -27 39.999s-10 32 -10 50z" />
    <glyph glyph-name="guilsinglleft" unicode="&#x2039;" horiz-adv-x="392" 
d="M288 77l-171 162l85.5 80.5l85.5 80.5v-95l-32.5 -33l-32.5 -33l32.5 -33.5l32.5 -33.5v-95z" />
    <glyph glyph-name="guilsinglright" unicode="&#x203a;" horiz-adv-x="392" 
d="M117.035 77l170.979 162l-85.4902 80.5l-85.4893 80.5v-95l32.4961 -33l32.4961 -33l-32.4961 -33.5l-32.4961 -33.5v-95z" />
    <glyph glyph-name=".null" horiz-adv-x="0" 
 />
    <glyph glyph-name="nonmarkingreturn" horiz-adv-x="300" 
 />
  </font>
</defs>
</svg>
